<svg xmlns="http://www.w3.org/2000/svg" xmlns:xlink="http://www.w3.org/1999/xlink" width="193.574" height="31.758" viewBox="0 0 193.574 31.758">
  <defs>
    <linearGradient id="linear-gradient" x1="0.481" y1="0.565" x2="0.343" y2="1.545" gradientUnits="objectBoundingBox">
      <stop offset="0" stop-color="#888ceb"/>
      <stop offset="0.5" stop-color="#c173e7"/>
      <stop offset="1" stop-color="#d662a0"/>
    </linearGradient>
    <linearGradient id="linear-gradient-2" x1="0.573" y1="0.026" x2="0.455" y2="1.113" xlink:href="#linear-gradient"/>
    <linearGradient id="linear-gradient-3" x1="6.075" y1="19.884" x2="6.075" y2="20.488" xlink:href="#linear-gradient"/>
  </defs>
  <g id="Layer_2" data-name="Layer 2" transform="translate(0.015)">
    <g id="Layer_1" data-name="Layer 1" transform="translate(-0.015)">
      <path id="Path_10488" data-name="Path 10488" d="M149.26,29.57l-5.59,12.821-1.8,4.117-1.8-4.117L134.48,29.57h3.566l3.826,8.742L145.7,29.57Z" transform="translate(-83.022 -18.257)" fill="#31335b"/>
      <path id="Path_10489" data-name="Path 10489" d="M186.05,23.6V20.54h3.309V23.6Zm3.309,1.6V40.89H186.05V25.2Z" transform="translate(-114.862 -12.681)" fill="#31335b"/>
      <path id="Path_10490" data-name="Path 10490" d="M218.616,38.627a5.578,5.578,0,0,1,.708,1.4,4.407,4.407,0,0,1,.222,1.592,4.557,4.557,0,0,1-.482,1.959,5.394,5.394,0,0,1-1.186,1.576,5.33,5.33,0,0,1-1.737,1.029,5.571,5.571,0,0,1-2.089.337,5.793,5.793,0,0,1-2.781-.8,4.974,4.974,0,0,1-1.879-1.959l2.762-1.913a1.821,1.821,0,0,0,.708.979,2.108,2.108,0,0,0,1.286.383,2.143,2.143,0,0,0,1.462-.467,1.53,1.53,0,0,0,.627-1.236,1.206,1.206,0,0,0-.031-.321v-.065a.245.245,0,0,1-.034-.115.286.286,0,0,0-.031-.111,1.863,1.863,0,0,0-.846-.88,1.254,1.254,0,0,0-.291-.13l.031-.031a10.473,10.473,0,0,0-.995-.5c-.363-.161-.735-.333-1.11-.517s-.742-.383-1.11-.578a6.064,6.064,0,0,1-1.025-.723V37.5l-.1-.1a4.783,4.783,0,0,1-1.06-1.492,4.021,4.021,0,0,1-.352-1.817,4.3,4.3,0,0,1,.448-1.8,4.74,4.74,0,0,1,1.11-1.446,5.173,5.173,0,0,1,1.622-.964,5.077,5.077,0,0,1,1.993-.321,5.636,5.636,0,0,1,2.491.673,4.7,4.7,0,0,1,1.752,1.641L216,33.741a1.626,1.626,0,0,0-.624-.612,1.886,1.886,0,0,0-.983-.256,1.959,1.959,0,0,0-1.266.352,1.148,1.148,0,0,0-.509.934.6.6,0,0,0,.031.226,1.148,1.148,0,0,0,.321.608,1.974,1.974,0,0,0,.643.421q.612.348,1.4.723t1.592.819a5.081,5.081,0,0,1,1.148.738l.161.161A6.4,6.4,0,0,1,218.616,38.627Z" transform="translate(-129.205 -18.25)" fill="#31335b"/>
      <path id="Path_10491" data-name="Path 10491" d="M264.217,29.57v9.607a7.14,7.14,0,0,1-.9,3.535,7.269,7.269,0,0,1-2.418,2.605,7.793,7.793,0,0,1-1.913.9,7.315,7.315,0,0,1-4.289,0,7.859,7.859,0,0,1-1.913-.9,7.6,7.6,0,0,1-2.4-2.605,7.07,7.07,0,0,1-.907-3.535V29.57h3.309v9.607a3.91,3.91,0,0,0,.333,1.576,4.044,4.044,0,0,0,.865,1.286,4.1,4.1,0,0,0,2.881,1.19,3.887,3.887,0,0,0,1.569-.321,4.358,4.358,0,0,0,1.3-.868,4.025,4.025,0,0,0,.88-1.286,3.975,3.975,0,0,0,.318-1.576V29.57Z" transform="translate(-154.023 -18.257)" fill="#31335b"/>
      <path id="Path_10492" data-name="Path 10492" d="M308.572,29.48a8.237,8.237,0,0,1,3.313.677,8.8,8.8,0,0,1,2.732,1.817,8.566,8.566,0,0,1,2.521,6.072v8.341h-3.313V44.83a9.057,9.057,0,0,1-2.41,1.3,8.568,8.568,0,0,1-6.164-15.977A8.237,8.237,0,0,1,308.572,29.48Zm0,13.819a4.974,4.974,0,0,0,2.043-.421,5.356,5.356,0,0,0,1.653-1.148,5.429,5.429,0,0,0,1.148-1.649,4.974,4.974,0,0,0,.417-2.02,5.039,5.039,0,0,0-.417-2.051,5.356,5.356,0,0,0-2.778-2.8,5.2,5.2,0,0,0-4.082,0,5.356,5.356,0,0,0-2.781,2.8,5.038,5.038,0,0,0-.417,2.051,4.973,4.973,0,0,0,.417,2.02A5.429,5.429,0,0,0,304.9,41.75a5.356,5.356,0,0,0,1.657,1.148,4.928,4.928,0,0,0,2.032.4Z" transform="translate(-185.24 -18.201)" fill="#31335b"/>
      <path id="Path_10493" data-name="Path 10493" d="M359.42,0h3.309V28.056H359.42Z" transform="translate(-221.901)" fill="#31335b"/>
      <path id="Path_10494" data-name="Path 10494" d="M395,28.9h-4.1l-4.916-6.749-.065.065V28.8H382.61V1h3.309V16.526l.065.065,3.375-4.66h4.079l-5.429,7.457Z" transform="translate(-236.218 -0.617)" fill="#31335b"/>
      <path id="Path_10495" data-name="Path 10495" d="M429.9,29.4a8.31,8.31,0,0,1,3.309.658,8.478,8.478,0,0,1,0,15.641,8.651,8.651,0,0,1-6.619,0,8.467,8.467,0,0,1-4.515-4.515,8.616,8.616,0,0,1,0-6.623,8.467,8.467,0,0,1,4.515-4.515,8.325,8.325,0,0,1,3.31-.647Zm0,13.659a5.085,5.085,0,0,0,2-.383,5.146,5.146,0,0,0,2.755-2.762,5.166,5.166,0,0,0-8.4-5.693,5.356,5.356,0,0,0-1.117,1.657,5.047,5.047,0,0,0,0,4.017,5.387,5.387,0,0,0,1.117,1.653,5.17,5.17,0,0,0,1.653,1.11,5.054,5.054,0,0,0,2,.4Z" transform="translate(-260.174 -18.151)" fill="#31335b"/>
      <path id="Path_10496" data-name="Path 10496" d="M488.429,38.6a5.577,5.577,0,0,1,.708,1.4,4.412,4.412,0,0,1,.226,1.592,4.668,4.668,0,0,1-.482,1.959,5.405,5.405,0,0,1-1.19,1.576,5.329,5.329,0,0,1-1.741,1.029,5.544,5.544,0,0,1-2.089.337,5.777,5.777,0,0,1-2.778-.8,4.947,4.947,0,0,1-1.882-1.959l2.766-1.913a1.8,1.8,0,0,0,.708.979,2.108,2.108,0,0,0,1.286.383,2.15,2.15,0,0,0,1.461-.467,1.53,1.53,0,0,0,.627-1.236,1.029,1.029,0,0,0-.034-.321v-.065a.287.287,0,0,1-.031-.115.245.245,0,0,0-.034-.111,1.863,1.863,0,0,0-.834-.9,1.255,1.255,0,0,0-.291-.13l.034-.031a11.041,11.041,0,0,0-1-.5c-.363-.161-.731-.333-1.106-.517s-.765-.383-1.11-.578a6.092,6.092,0,0,1-1.029-.723v-.031l-.1-.1a4.721,4.721,0,0,1-1.06-1.492,4.021,4.021,0,0,1-.356-1.817,4.308,4.308,0,0,1,.451-1.8,4.626,4.626,0,0,1,1.109-1.446,5.219,5.219,0,0,1,3.616-1.286,5.662,5.662,0,0,1,2.491.673,4.687,4.687,0,0,1,1.748,1.641l-2.7,1.863a1.637,1.637,0,0,0-.627-.612,1.882,1.882,0,0,0-.979-.256,1.963,1.963,0,0,0-1.27.352,1.148,1.148,0,0,0-.532.934.521.521,0,0,0,.034.226,1.113,1.113,0,0,0,.321.608,1.974,1.974,0,0,0,.643.421c.406.233.872.474,1.4.723s1.056.517,1.592.819a4.92,4.92,0,0,1,1.148.738l.161.161a6.4,6.4,0,0,1,.719.792Z" transform="translate(-295.793 -18.221)" fill="#31335b"/>
      <path id="Path_10497" data-name="Path 10497" d="M63.587,36.7a.191.191,0,0,0-.279-.126h0q-1.68.888-3.528,1.852a.187.187,0,0,0-.1.21,10.254,10.254,0,0,1-17.328,8.608.2.2,0,0,0-.218-.034l-.815.383L38.53,48.906a.187.187,0,0,0-.065.295,14.443,14.443,0,0,0,25.19-12.174Z" transform="translate(-23.714 -22.565)" fill="url(#linear-gradient)"/>
      <path id="Path_10498" data-name="Path 10498" d="M50.375,8.461c-.191-.383-4.89,1.53-11.841,4.721a1.167,1.167,0,0,1-1.442-.383A14.447,14.447,0,0,0,11.029,23.834a14.753,14.753,0,0,0,.44,1.664,1.175,1.175,0,0,1-.555,1.408C4.157,30.51-.2,33.12-.009,33.5s4.932-1.53,11.933-4.76l.83-.383q1.817-.846,3.826-1.794c2.854-1.358,5.946-2.858,9.163-4.461s6.286-3.153,9.091-4.591q1.955-1.018,3.734-1.959v-.019l.314-.145C45.96,11.595,50.578,8.859,50.375,8.461Zm-25.741,11.4c-2.739,1.358-5.356,2.678-7.82,3.952a1.148,1.148,0,0,1-1.676-.792h0a10.257,10.257,0,0,1,17.753-8.8,1.148,1.148,0,0,1-.383,1.817C30.021,17.207,27.373,18.5,24.634,19.863Z" transform="translate(0.015 -4.042)" fill="url(#linear-gradient-2)"/>
      <path id="Path_10499" data-name="Path 10499" d="M101.126,28.58l-.306.165v-.019Z" transform="translate(-62.241 -17.645)" fill="url(#linear-gradient-3)"/>
      <path id="Path_10500" data-name="Path 10500" d="M101.126,28.58l-.306.165v-.019Z" transform="translate(-62.241 -17.645)" fill="url(#linear-gradient-3)"/>
    </g>
  </g>
</svg>
