<svg xmlns="http://www.w3.org/2000/svg" viewBox="0 0 375.85 147.54"><defs><style>.cls-1{fill:#fff;}</style></defs><g id="Layer_2" data-name="Layer 2"><g id="Layer_1-2" data-name="Layer 1"><path class="cls-1" d="M29.31,53.86l-10,22.84-10-22.84H0L14.61,87.37l4.71,10.75L24,87.37,38.64,53.86Z"/><path class="cls-1" d="M53.25,53.69V98h8.66V53.69Zm0-13.19v8.65h8.66V40.5Z"/><path class="cls-1" d="M102.73,81.2a14.64,14.64,0,0,0-1.85-3.66,16.56,16.56,0,0,0-1.85-2l-.42-.42a12.54,12.54,0,0,0-3-1.93c-1.4-.79-2.79-1.5-4.16-2.15s-2.59-1.27-3.65-1.89a5,5,0,0,1-1.68-1.09,2.94,2.94,0,0,1-.84-1.59,1.39,1.39,0,0,1-.09-.59,3,3,0,0,1,1.39-2.44,5.08,5.08,0,0,1,3.32-.92,4.92,4.92,0,0,1,2.56.67,4.28,4.28,0,0,1,1.64,1.6l7-4.88a12.23,12.23,0,0,0-4.57-4.28,14.8,14.8,0,0,0-6.51-1.76,13.64,13.64,0,0,0-9.45,3.36A12.09,12.09,0,0,0,77.7,61a11.22,11.22,0,0,0-1.18,4.7,10.38,10.38,0,0,0,.93,4.75,12.34,12.34,0,0,0,2.77,3.9l.25.25v.09a15.53,15.53,0,0,0,2.69,1.89c1,.53,1.91,1,2.9,1.51S88,79,89,79.43a28.82,28.82,0,0,1,2.61,1.31l-.09.08a2.9,2.9,0,0,1,.76.34,4.87,4.87,0,0,1,2.18,2.35.64.64,0,0,1,.09.29.64.64,0,0,0,.08.3v.16a2.86,2.86,0,0,1,.08.84A4,4,0,0,1,93,88.34a5.65,5.65,0,0,1-3.83,1.22,5.5,5.5,0,0,1-3.35-1A4.69,4.69,0,0,1,84,85.94l-7.23,5a12.89,12.89,0,0,0,4.92,5.13A15.1,15.1,0,0,0,89,98.21a14.49,14.49,0,0,0,5.46-.88A13.93,13.93,0,0,0,99,94.6a14.13,14.13,0,0,0,3.11-4.12,12.28,12.28,0,0,0,1.26-5.12A11.5,11.5,0,0,0,102.73,81.2Z"/><path class="cls-1" d="M146.58,53.86V79a10.22,10.22,0,0,1-.84,4.12,10.52,10.52,0,0,1-2.3,3.36,11.39,11.39,0,0,1-3.39,2.27,10.13,10.13,0,0,1-4.1.84,10.42,10.42,0,0,1-4.14-.84,10.52,10.52,0,0,1-5.65-5.63,10.22,10.22,0,0,1-.84-4.12V53.86h-8.65V79a18.38,18.38,0,0,0,2.38,9.24A19.73,19.73,0,0,0,125.32,95a21.1,21.1,0,0,0,5,2.35,19.15,19.15,0,0,0,11.22,0,21.1,21.1,0,0,0,5-2.35,19.1,19.1,0,0,0,6.31-6.81A18.66,18.66,0,0,0,155.23,79V53.86Z"/><path class="cls-1" d="M210.17,67.46a22.38,22.38,0,0,0-4.82-7.14,23.14,23.14,0,0,0-7.13-4.78,22.17,22.17,0,0,0-17.36,0A22.28,22.28,0,0,0,169,67.46a22.08,22.08,0,0,0-1.76,8.74A21.7,21.7,0,0,0,169,84.89a22.45,22.45,0,0,0,11.89,11.89A22.5,22.5,0,0,0,197,97.3a24,24,0,0,0,6.3-3.42V98h8.65V76.2A22.08,22.08,0,0,0,210.17,67.46Zm-8,14a13.81,13.81,0,0,1-2.94,4.35,14,14,0,0,1-4.32,3,13.49,13.49,0,0,1-10.67,0A14,14,0,0,1,177,81.48a13.13,13.13,0,0,1-1.09-5.28A13.39,13.39,0,0,1,177,70.83a14,14,0,0,1,7.27-7.31,13.49,13.49,0,0,1,10.67,0,14,14,0,0,1,7.26,7.31,13.23,13.23,0,0,1,1.1,5.37A13,13,0,0,1,202.18,81.48Z"/><path class="cls-1" d="M232.63,32.69q1-4.17,2.39-8.24h-9.08a126.72,126.72,0,0,0-.08,73.17h9.07A118.09,118.09,0,0,1,232.63,32.69Z"/><path class="cls-1" d="M334,67.21a22.22,22.22,0,0,0-11.8-11.8,22.64,22.64,0,0,0-17.31,0,22.22,22.22,0,0,0-11.8,11.8,22.64,22.64,0,0,0,0,17.31,22.22,22.22,0,0,0,11.8,11.8,22.64,22.64,0,0,0,17.31,0A22.22,22.22,0,0,0,334,84.52a22.64,22.64,0,0,0,0-17.31Zm-8,13.9a13.42,13.42,0,0,1-7.2,7.23,13.58,13.58,0,0,1-10.47,0,13.47,13.47,0,0,1-4.31-2.9,13.86,13.86,0,0,1-2.93-4.33,13.19,13.19,0,0,1,0-10.5A13.93,13.93,0,0,1,304,66.29a13.47,13.47,0,0,1,4.31-2.9,13.58,13.58,0,0,1,10.47,0A13.51,13.51,0,0,1,327,75.86,13.3,13.3,0,0,1,326,81.11Z"/><path class="cls-1" d="M375.25,81.2a14.61,14.61,0,0,0-1.84-3.66,17.4,17.4,0,0,0-1.85-2l-.42-.42a12.79,12.79,0,0,0-3-1.93c-1.4-.79-2.78-1.5-4.15-2.15s-2.6-1.27-3.66-1.89a5.14,5.14,0,0,1-1.68-1.09,2.94,2.94,0,0,1-.84-1.59,1.42,1.42,0,0,1-.08-.59,3,3,0,0,1,1.38-2.44,5.09,5.09,0,0,1,3.32-.92,4.89,4.89,0,0,1,2.56.67,4.21,4.21,0,0,1,1.64,1.6l7.06-4.88a12.26,12.26,0,0,0-4.58-4.28,14.73,14.73,0,0,0-6.51-1.76,13.24,13.24,0,0,0-5.21.84,13.4,13.4,0,0,0-4.24,2.52,12.24,12.24,0,0,0-2.9,3.78A11.22,11.22,0,0,0,349,65.7a10.65,10.65,0,0,0,.93,4.75,12.5,12.5,0,0,0,2.77,3.9l.25.25v.09a15.92,15.92,0,0,0,2.69,1.89c.95.53,1.92,1,2.9,1.51s1.94.92,2.9,1.34a27.34,27.34,0,0,1,2.6,1.31l-.08.08a3,3,0,0,1,.75.34,4.89,4.89,0,0,1,2.19,2.35.75.75,0,0,1,.08.29.67.67,0,0,0,.09.3v.16a3.25,3.25,0,0,1,.08.84,4,4,0,0,1-1.64,3.24,5.62,5.62,0,0,1-3.82,1.22,5.51,5.51,0,0,1-3.36-1,4.74,4.74,0,0,1-1.85-2.57l-7.22,5a12.87,12.87,0,0,0,4.91,5.13,15.14,15.14,0,0,0,7.27,2.1,14.56,14.56,0,0,0,5.46-.88,13.77,13.77,0,0,0,7.64-6.85,12,12,0,0,0,1.26-5.12A11.28,11.28,0,0,0,375.25,81.2Z"/><path class="cls-1" d="M285,97.61H274.37L262.89,81.85c-.1.6-.2,1.2-.31,1.8h0c-.08.44-.16.89-.24,1.31v0a129,129,0,0,1-3.1,12.62h-9.07a118.09,118.09,0,0,0,2.3-64.93q-1-4.17-2.39-8.24h9.07a126.44,126.44,0,0,1,5.44,36.76l5.75-7.94H281l-14.2,19.48Z"/><polygon class="cls-1" points="235.01 133.02 230.21 133.02 230.27 105.48 235.07 105.48 235.01 133.02"/><polygon class="cls-1" points="257.69 124.75 252.89 124.75 252.81 105.42 257.61 105.41 257.69 124.75"/><rect class="cls-1" x="241.41" y="113.42" width="4.8" height="34.12"/><path class="cls-1" d="M256.13,14.47h-7.48a54.41,54.41,0,0,0-6.12-6.24,53.6,53.6,0,0,0-6.12,6.24h-7.49A57.87,57.87,0,0,1,242.53,0,57.82,57.82,0,0,1,256.13,14.47Z"/></g></g></svg>