<svg xmlns="http://www.w3.org/2000/svg" xmlns:xlink="http://www.w3.org/1999/xlink" viewBox="0 0 411.42 104.92"><defs><style>.cls-1{fill:#888ceb;fill-rule:evenodd;}.cls-2{fill:#2d2c2e;}.cls-3{fill:url(#linear-gradient);}.cls-4{fill:url(#linear-gradient-2);}</style><linearGradient id="linear-gradient" x1="41.33" y1="317.82" x2="32.13" y2="363.39" gradientTransform="translate(-31.67 -220.67) rotate(-11.42)" gradientUnits="userSpaceOnUse"><stop offset="0" stop-color="#888ceb"/><stop offset="0.5" stop-color="#c173e7"/><stop offset="1" stop-color="#d662a0"/></linearGradient><linearGradient id="linear-gradient-2" x1="46.27" y1="263.44" x2="30.77" y2="340.16" xlink:href="#linear-gradient"/></defs><g id="Layer_2" data-name="Layer 2"><g id="Layer_1-2" data-name="Layer 1"><polygon class="cls-1" points="28.93 60.42 28.19 59.62 25.71 60.74 26.58 69.33 28.41 68.5 34.05 65.96 28.93 60.42"/><path class="cls-2" d="M148.31,91.69l-.31.69-3.95,9.35h-3.61l12.35-27.94,12.35,27.94h-3.61l-3.88-9.12-.3-.76-4.56-10.72Zm-1.33-1h11.78l1.14,3H145.84Z"/><path class="cls-2" d="M186.86,93.86a10.14,10.14,0,0,0,3.62,3.68,9.37,9.37,0,0,0,4.87,1.34,11.66,11.66,0,0,0,3.48-.5A10.4,10.4,0,0,0,201.69,97a9.5,9.5,0,0,0,2.21-2.07v4.26a11.31,11.31,0,0,1-3.65,2.2,14.18,14.18,0,0,1-4.9.73,13.37,13.37,0,0,1-5.19-1,12.73,12.73,0,0,1-4.23-2.85,13.32,13.32,0,0,1-2.86-4.35,15.2,15.2,0,0,1,0-11,13.32,13.32,0,0,1,2.86-4.35,12.73,12.73,0,0,1,4.23-2.85,13.37,13.37,0,0,1,5.19-1,14.44,14.44,0,0,1,4.9.72,11.31,11.31,0,0,1,3.65,2.2v4.26a9.5,9.5,0,0,0-2.21-2.07,10.4,10.4,0,0,0-2.86-1.39,11.66,11.66,0,0,0-3.48-.49,9.36,9.36,0,0,0-4.87,1.33A10.16,10.16,0,0,0,186.86,83a11.36,11.36,0,0,0,0,10.89Z"/><path class="cls-2" d="M230.38,91.69l-.3.69-4,9.35h-3.61l12.35-27.94,12.35,27.94h-3.61l-3.88-9.12-.3-.76-4.56-10.72Zm-1.33-1h11.78l1.14,3H227.91Z"/><path class="cls-2" d="M270,75.13v26.6h-3.23V75.13Zm-1.45,26.6V98.5h6.2a11.5,11.5,0,0,0,4.1-.71,8.8,8.8,0,0,0,5.25-5.18,12.49,12.49,0,0,0,0-8.36,8.78,8.78,0,0,0-5.25-5.19,11.5,11.5,0,0,0-4.1-.7h-6.2V75.13h6.2a13.88,13.88,0,0,1,6.88,1.67,12.1,12.1,0,0,1,4.71,4.65,15.08,15.08,0,0,1,0,14,12.1,12.1,0,0,1-4.71,4.65,13.88,13.88,0,0,1-6.88,1.68Z"/><path class="cls-2" d="M312.2,75.13v26.6H309V75.13Zm-1.45,0h13.42v3H310.75Zm0,10.64h12.66v3H310.75Zm0,12.92h13.42v3H310.75Z"/><path class="cls-2" d="M347.92,101.73h-3.23l3.23-27.94,10.64,19.27L369.2,73.79l3.23,27.94H369.2l-2-18-8.66,15.51-8.67-15.51Z"/><path class="cls-2" d="M411.42,75.13l-8.86,15.12v11.48h-3.23V90.29l-8.85-15.16h3.61l6.84,12.31,6.87-12.31Z"/><path class="cls-2" d="M168.27,21.44l-10.6,24.3-3.41,7.8-3.41-7.8-10.6-24.3H147L154.26,38l7.25-16.57Z"/><path class="cls-2" d="M177.65,20.69v-5.8h6.27v5.8Zm6.27,3V53.48h-6.27V23.74Z"/><path class="cls-2" d="M212.18,38.62a10.16,10.16,0,0,1,1.34,2.65,8.17,8.17,0,0,1,.43,3A8.81,8.81,0,0,1,213,48a10,10,0,0,1-5.54,5,10.36,10.36,0,0,1-4,.64,11,11,0,0,1-5.27-1.52,9.35,9.35,0,0,1-3.56-3.72l5.24-3.65a3.42,3.42,0,0,0,1.34,1.86,4,4,0,0,0,2.43.76,4.09,4.09,0,0,0,2.78-.89,2.88,2.88,0,0,0,1.18-2.34,2.14,2.14,0,0,0-.06-.61v-.12a.52.52,0,0,1-.06-.22.48.48,0,0,0-.06-.21,3.48,3.48,0,0,0-1.58-1.7,2,2,0,0,0-.55-.25l.06-.06a20.81,20.81,0,0,0-1.89-.94c-.69-.31-1.39-.63-2.1-1s-1.41-.71-2.1-1.09a12.45,12.45,0,0,1-2-1.37v-.07l-.18-.18a9,9,0,0,1-2-2.83,7.59,7.59,0,0,1-.67-3.44,8.07,8.07,0,0,1,.85-3.41,9,9,0,0,1,2.1-2.74,10,10,0,0,1,3.08-1.83,9.64,9.64,0,0,1,3.77-.61A10.66,10.66,0,0,1,209,22.72a8.8,8.8,0,0,1,3.32,3.11l-5.11,3.53a3.16,3.16,0,0,0-1.19-1.16,3.64,3.64,0,0,0-1.86-.49,3.73,3.73,0,0,0-2.4.67,2.15,2.15,0,0,0-1,1.77,1.09,1.09,0,0,0,.06.43,2.16,2.16,0,0,0,.61,1.15,3.8,3.8,0,0,0,1.22.8c.77.44,1.65.9,2.65,1.37s2,1,3,1.55a9.29,9.29,0,0,1,2.2,1.4l.3.3A12.78,12.78,0,0,1,212.18,38.62Z"/><path class="cls-2" d="M251.59,21.44V39.65a13.64,13.64,0,0,1-1.69,6.7,13.92,13.92,0,0,1-4.58,4.94,14.81,14.81,0,0,1-3.65,1.7,13.82,13.82,0,0,1-8.12,0,14.57,14.57,0,0,1-3.64-1.7,14.33,14.33,0,0,1-4.56-4.94,13.45,13.45,0,0,1-1.72-6.7V21.44h6.28V39.65a7.53,7.53,0,0,0,.6,3,7.68,7.68,0,0,0,4.1,4.08,7.66,7.66,0,0,0,3,.61,7.44,7.44,0,0,0,3-.61A8.3,8.3,0,0,0,243,45.07a7.63,7.63,0,0,0,1.67-2.43,7.54,7.54,0,0,0,.61-3V21.44Z"/><path class="cls-2" d="M276.47,21.38a15.65,15.65,0,0,1,6.29,1.28,16.72,16.72,0,0,1,5.17,3.47,16.22,16.22,0,0,1,3.5,5.18,15.94,15.94,0,0,1,1.27,6.33V53.42h-6.27v-3a17.23,17.23,0,0,1-4.57,2.47,16.26,16.26,0,0,1-11.66-.38A16.26,16.26,0,0,1,261.58,44a16.24,16.24,0,0,1,0-12.64,16.12,16.12,0,0,1,8.6-8.65A15.65,15.65,0,0,1,276.47,21.38Zm0,26.19a9.47,9.47,0,0,0,3.87-.8,10.23,10.23,0,0,0,3.14-2.14,10.35,10.35,0,0,0,2.13-3.16,9.55,9.55,0,0,0,.79-3.83,9.73,9.73,0,0,0-.79-3.89,10.09,10.09,0,0,0-5.27-5.3,9.76,9.76,0,0,0-7.74,0,10.36,10.36,0,0,0-3.13,2.14,10.12,10.12,0,0,0-2.13,3.16,9.57,9.57,0,0,0-.8,3.89,9.39,9.39,0,0,0,.8,3.83,10,10,0,0,0,2.13,3.16,10.18,10.18,0,0,0,3.13,2.14A9.47,9.47,0,0,0,276.5,47.57Z"/><path class="cls-2" d="M303.36,0h6.27V53.17h-6.27Z"/><path class="cls-2" d="M343.62,53.6h-7.73l-9.32-12.79-.12.12V53.42h-6.28V.73h6.28V30.15l.12.12L333,21.44h7.74L330.4,35.57Z"/><path class="cls-2" d="M364.39,21.32a15.72,15.72,0,0,1,6.28,1.25,16.07,16.07,0,0,1,8.55,8.55,16.38,16.38,0,0,1,0,12.55,16,16,0,0,1-8.55,8.56,16.38,16.38,0,0,1-12.55,0,16,16,0,0,1-8.56-8.56,16.38,16.38,0,0,1,0-12.55,16,16,0,0,1,8.56-8.55A15.67,15.67,0,0,1,364.39,21.32Zm0,25.88a9.73,9.73,0,0,0,6.92-2.86,9.9,9.9,0,0,0,2.1-3.13,9.93,9.93,0,0,0,0-7.62,9.75,9.75,0,0,0-5.22-5.24,9.8,9.8,0,0,0-10.72,2.1,10.38,10.38,0,0,0-2.13,3.14,9.7,9.7,0,0,0,0,7.62,10.33,10.33,0,0,0,2.13,3.13,9.78,9.78,0,0,0,6.92,2.86Z"/><path class="cls-2" d="M407.82,38.62a10.48,10.48,0,0,1,1.34,2.65,8.17,8.17,0,0,1,.42,3,8.65,8.65,0,0,1-.91,3.72,10.28,10.28,0,0,1-2.25,3,10.11,10.11,0,0,1-3.29,2,10.36,10.36,0,0,1-4,.64,11,11,0,0,1-5.27-1.52,9.35,9.35,0,0,1-3.56-3.72l5.24-3.65a3.42,3.42,0,0,0,1.34,1.86,4.51,4.51,0,0,0,5.2-.13,2.86,2.86,0,0,0,1.19-2.34,2.14,2.14,0,0,0-.06-.61v-.12a.52.52,0,0,1-.06-.22.48.48,0,0,0-.06-.21,3.46,3.46,0,0,0-1.59-1.7A2,2,0,0,0,401,41l.06-.06a20.81,20.81,0,0,0-1.89-.94c-.69-.31-1.39-.63-2.1-1s-1.41-.71-2.1-1.09a12.45,12.45,0,0,1-2-1.37v-.07l-.18-.18a8.7,8.7,0,0,1-2-2.83,7.46,7.46,0,0,1-.67-3.44,8.07,8.07,0,0,1,.85-3.41,9,9,0,0,1,2.1-2.74,10,10,0,0,1,3.08-1.83,9.61,9.61,0,0,1,3.77-.61,10.66,10.66,0,0,1,4.72,1.28A8.88,8.88,0,0,1,408,25.83l-5.11,3.53a3.16,3.16,0,0,0-1.19-1.16,3.64,3.64,0,0,0-1.86-.49,3.76,3.76,0,0,0-2.41.67,2.14,2.14,0,0,0-1,1.77,1.09,1.09,0,0,0,.06.43,2.09,2.09,0,0,0,.61,1.15,3.7,3.7,0,0,0,1.22.8c.77.44,1.65.9,2.65,1.37s2,1,3,1.55a9.24,9.24,0,0,1,2.19,1.4l.31.3A13.76,13.76,0,0,1,407.82,38.62Z"/><path class="cls-3" d="M104.39,59.69c-.06-.29-.12-.58-.19-.86a.5.5,0,0,0-.72-.33q-4.4,2.32-9.23,4.84a.5.5,0,0,0-.27.51A26.8,26.8,0,0,1,48.71,86.39a.5.5,0,0,0-.56-.09l-2.14,1c-2.5,1.19-4.94,2.34-7.29,3.44a.49.49,0,0,0-.17.77,37.75,37.75,0,0,0,65.84-31.84Z"/><path class="cls-4" d="M131.7,33.44c-.51-1-12.78,4-30.95,12.34a3,3,0,0,1-3.77-1,37.89,37.89,0,0,0-25.76-16,37.36,37.36,0,0,0-8.34-.25l-9,13.66a26.91,26.91,0,0,1,20.41-1.49A27,27,0,0,1,86,48.44a3,3,0,0,1-1,4.75c-6.5,3.11-13.43,6.49-20.59,10.05s-14,7-20.43,10.33A3,3,0,0,1,39.6,71.5a.08.08,0,0,1,0,0A26.8,26.8,0,0,1,52.88,42.7l-16-.76a37.6,37.6,0,0,0-8.77,25.82A38,38,0,0,0,30,78a3.09,3.09,0,0,1-1.45,3.68C10.9,91.07-.49,97.85,0,98.87s12.89-4,31.19-12.45l2.17-1q4.75-2.2,10-4.69c7.46-3.54,15.55-7.47,24-11.65s16.42-8.25,23.76-12c3.4-1.77,6.66-3.48,9.75-5.12,0,0,0,0,0,0l.83-.38C120.16,41.63,132.22,34.49,131.7,33.44ZM59.32,29l-.93.18A37.49,37.49,0,0,0,39.31,39.32l12.77.62Z"/><path class="cls-1" d="M71.22,28.77l-3.45-7.65-4.89,7.4-9,13.66-.36.55-.62,0-16-.76L26,41.42l4.79,10.63,2.07,4.59c1.67,1.38,4.26,1.93,7.25,1.94,5.6,0,12.56-1.9,17.26-4,6.61-3,14.24-8.5,16.86-13.88a9,9,0,0,0,.92-3.12ZM36,10.35,15.6,38.19l8.72,19.33L26.8,56.4,18.66,38.33l20.65,1,12.77.62,7.24-11h0L71.78,10.1Z"/></g></g></svg>