<svg xmlns="http://www.w3.org/2000/svg" width="201.191" height="33.618" viewBox="0 0 201.191 33.618">
  <g id="Layer_2" data-name="Layer 2" transform="translate(0.015 1)">
    <g id="Layer_1" data-name="Layer 1" transform="translate(-0.015 -1)">
      <path id="Path_3184" data-name="Path 3184" d="M149.841,29.57,144.032,42.9l-1.869,4.279L140.29,42.9,134.48,29.57h3.706l3.977,9.086,3.977-9.086Z" transform="translate(-80.998 -17.811)" fill="#fff"/>
      <path id="Path_3185" data-name="Path 3185" d="M186.05,23.721V20.54h3.44v3.181Zm3.44,1.666v16.3h-3.44v-16.3Z" transform="translate(-112.061 -12.372)" fill="#fff"/>
      <path id="Path_3186" data-name="Path 3186" d="M218.983,38.984a5.8,5.8,0,0,1,.736,1.451,4.581,4.581,0,0,1,.231,1.654,4.736,4.736,0,0,1-.5,2.036,5.607,5.607,0,0,1-1.233,1.638,5.54,5.54,0,0,1-1.805,1.07,5.79,5.79,0,0,1-2.171.35,6.021,6.021,0,0,1-2.891-.835,5.169,5.169,0,0,1-1.952-2.036l2.871-1.988A1.893,1.893,0,0,0,213,43.342a2.191,2.191,0,0,0,1.336.4,2.227,2.227,0,0,0,1.519-.485,1.591,1.591,0,0,0,.652-1.284,1.253,1.253,0,0,0-.032-.334v-.068a.254.254,0,0,1-.036-.119.3.3,0,0,0-.032-.115,1.937,1.937,0,0,0-.879-.915,1.3,1.3,0,0,0-.3-.135l.032-.032a10.884,10.884,0,0,0-1.034-.517c-.378-.167-.763-.346-1.153-.537s-.771-.4-1.153-.6a6.3,6.3,0,0,1-1.066-.752v-.032l-.1-.1a4.971,4.971,0,0,1-1.1-1.551,4.179,4.179,0,0,1-.366-1.889,4.474,4.474,0,0,1,.465-1.869,4.927,4.927,0,0,1,1.153-1.5,5.377,5.377,0,0,1,1.686-1,5.277,5.277,0,0,1,2.072-.334,5.857,5.857,0,0,1,2.589.7,4.883,4.883,0,0,1,1.821,1.706l-2.807,1.937a1.69,1.69,0,0,0-.648-.636A1.96,1.96,0,0,0,214.593,33a2.036,2.036,0,0,0-1.316.366,1.193,1.193,0,0,0-.529.97.628.628,0,0,0,.032.235,1.193,1.193,0,0,0,.334.632,2.052,2.052,0,0,0,.668.437q.636.362,1.455.752t1.654.851a5.281,5.281,0,0,1,1.193.767l.167.167a6.652,6.652,0,0,1,.732.8Z" transform="translate(-126.054 -17.805)" fill="#fff"/>
      <path id="Path_3187" data-name="Path 3187" d="M264.8,29.57v9.985a7.421,7.421,0,0,1-.931,3.674,7.556,7.556,0,0,1-2.513,2.708,8.1,8.1,0,0,1-1.988.934,7.6,7.6,0,0,1-4.458,0,8.168,8.168,0,0,1-1.988-.934,7.894,7.894,0,0,1-2.5-2.708,7.349,7.349,0,0,1-.942-3.674V29.57h3.44v9.985a4.064,4.064,0,0,0,.346,1.638,4.2,4.2,0,0,0,.9,1.336,4.263,4.263,0,0,0,2.994,1.237,4.04,4.04,0,0,0,1.63-.334,4.53,4.53,0,0,0,1.348-.9,4.184,4.184,0,0,0,.915-1.336,4.131,4.131,0,0,0,.33-1.638V29.57Z" transform="translate(-150.267 -17.811)" fill="#fff"/>
      <path id="Path_3188" data-name="Path 3188" d="M308.908,29.48a8.561,8.561,0,0,1,3.444.7,9.146,9.146,0,0,1,2.839,1.889,8.9,8.9,0,0,1,2.621,6.311v8.669h-3.444V45.434a9.413,9.413,0,0,1-2.505,1.356,8.9,8.9,0,0,1-6.406-16.606A8.562,8.562,0,0,1,308.908,29.48Zm0,14.363a5.17,5.17,0,0,0,2.123-.437,5.567,5.567,0,0,0,1.718-1.193,5.643,5.643,0,0,0,1.193-1.714,5.169,5.169,0,0,0,.433-2.1,5.237,5.237,0,0,0-.433-2.131,5.567,5.567,0,0,0-2.887-2.911,5.408,5.408,0,0,0-4.243,0,5.567,5.567,0,0,0-2.891,2.911,5.238,5.238,0,0,0-.433,2.131,5.169,5.169,0,0,0,.433,2.1,5.643,5.643,0,0,0,1.169,1.734,5.567,5.567,0,0,0,1.722,1.193,5.122,5.122,0,0,0,2.112.418Z" transform="translate(-180.722 -17.757)" fill="#fff"/>
      <path id="Path_3189" data-name="Path 3189" d="M359.42,0h3.44V29.16h-3.44Z" transform="translate(-216.489)" fill="#fff"/>
      <path id="Path_3190" data-name="Path 3190" d="M395.49,30h-4.263l-5.11-7.015-.068.068V29.9h-3.44V1h3.44V17.137l.068.068,3.507-4.843h4.239l-5.643,7.75Z" transform="translate(-230.458 -0.602)" fill="#fff"/>
      <path id="Path_3191" data-name="Path 3191" d="M430.23,29.4a8.638,8.638,0,0,1,3.44.684,8.812,8.812,0,0,1,0,16.256,8.991,8.991,0,0,1-6.879,0,8.8,8.8,0,0,1-4.692-4.692,8.955,8.955,0,0,1,0-6.883,8.8,8.8,0,0,1,4.692-4.692A8.653,8.653,0,0,1,430.23,29.4Zm0,14.2a5.285,5.285,0,0,0,2.084-.4,5.348,5.348,0,0,0,2.863-2.871,5.369,5.369,0,0,0-8.728-5.917,5.567,5.567,0,0,0-1.161,1.722,5.245,5.245,0,0,0,0,4.175,5.6,5.6,0,0,0,1.161,1.718,5.372,5.372,0,0,0,1.718,1.153,5.253,5.253,0,0,0,2.08.418Z" transform="translate(-253.829 -17.708)" fill="#fff"/>
      <path id="Path_3192" data-name="Path 3192" d="M488.8,38.955a5.8,5.8,0,0,1,.736,1.451,4.586,4.586,0,0,1,.235,1.654,4.852,4.852,0,0,1-.5,2.036,5.618,5.618,0,0,1-1.237,1.638,5.539,5.539,0,0,1-1.809,1.07,5.762,5.762,0,0,1-2.171.35,6,6,0,0,1-2.887-.835,5.142,5.142,0,0,1-1.956-2.036L482.08,42.3a1.873,1.873,0,0,0,.736,1.018,2.191,2.191,0,0,0,1.336.4,2.235,2.235,0,0,0,1.519-.485,1.591,1.591,0,0,0,.652-1.284,1.069,1.069,0,0,0-.036-.334V41.54a.3.3,0,0,1-.032-.119.254.254,0,0,0-.036-.115,1.936,1.936,0,0,0-.867-.934,1.3,1.3,0,0,0-.3-.135l.036-.032a11.473,11.473,0,0,0-1.038-.517c-.378-.167-.76-.346-1.149-.537s-.8-.4-1.153-.6a6.331,6.331,0,0,1-1.07-.752v-.032l-.1-.1a4.906,4.906,0,0,1-1.1-1.551,4.179,4.179,0,0,1-.37-1.889,4.478,4.478,0,0,1,.469-1.869,4.808,4.808,0,0,1,1.153-1.5,5.424,5.424,0,0,1,3.758-1.336,5.885,5.885,0,0,1,2.589.7,4.872,4.872,0,0,1,1.817,1.706l-2.8,1.937a1.7,1.7,0,0,0-.652-.636,1.956,1.956,0,0,0-1.018-.266,2.04,2.04,0,0,0-1.32.366,1.193,1.193,0,0,0-.553.97.541.541,0,0,0,.036.235,1.157,1.157,0,0,0,.334.632,2.052,2.052,0,0,0,.668.437c.422.243.907.493,1.451.752s1.1.537,1.654.851a5.114,5.114,0,0,1,1.193.767l.167.167A6.653,6.653,0,0,1,488.8,38.955Z" transform="translate(-288.579 -17.776)" fill="#fff"/>
      <path id="Path_3193" data-name="Path 3193" d="M64.577,36.7a.2.2,0,0,0-.29-.131h0Q62.541,37.5,60.62,38.5a.2.2,0,0,0-.1.219,10.657,10.657,0,0,1-18.01,8.947.207.207,0,0,0-.227-.036l-.847.4-2.9,1.368a.195.195,0,0,0-.068.306A15.011,15.011,0,0,0,64.649,37.046Z" transform="translate(-23.136 -21.404)" fill="#fff"/>
      <path id="Path_3194" data-name="Path 3194" d="M52.358,8.537c-.2-.4-5.082,1.591-12.307,4.907a1.213,1.213,0,0,1-1.5-.4A15.015,15.015,0,0,0,11.463,24.514a15.334,15.334,0,0,0,.457,1.73,1.221,1.221,0,0,1-.577,1.463C4.321,31.453-.2,34.165-.009,34.563s5.126-1.591,12.4-4.947l.863-.4q1.889-.879,3.977-1.865c2.966-1.412,6.18-2.97,9.524-4.637s6.533-3.277,9.448-4.772q2.032-1.058,3.881-2.036v-.02l.326-.151C47.769,11.793,52.569,8.95,52.358,8.537ZM25.6,20.387c-2.847,1.412-5.567,2.784-8.128,4.108a1.193,1.193,0,0,1-1.742-.823h0a10.661,10.661,0,0,1,18.451-9.146,1.193,1.193,0,0,1-.4,1.889C31.2,17.627,28.451,18.971,25.6,20.387Z" transform="translate(0.015 -3.334)" fill="#fff"/>
      <path id="Path_3195" data-name="Path 3195" d="M101.138,28.58l-.318.171v-.02Z" transform="translate(-60.723 -16.605)" fill="#fff"/>
      <path id="Path_3196" data-name="Path 3196" d="M101.138,28.58l-.318.171v-.02Z" transform="translate(-60.723 -16.605)" fill="#fff"/>
    </g>
  </g>
</svg>
