<svg xmlns="http://www.w3.org/2000/svg" xmlns:xlink="http://www.w3.org/1999/xlink" width="137.395" height="53.431" viewBox="0 0 137.395 53.431">
  <defs>
    <clipPath id="clip-path">
      <rect id="Rectangle_804" data-name="Rectangle 804" width="137.395" height="53.431" fill="#5fb299"/>
    </clipPath>
  </defs>
  <g id="ea" clip-path="url(#clip-path)" style="isolation: isolate">
    <path id="Path_2793" data-name="Path 2793" d="M90.679-.4,70.757,31.2H48.85l5.038-7.786H67.475l4.961-7.862H42.057L37.1,23.415h7.328L34.5,39.063H75.26L90.679,14.408l5.648,9.007H91.519L86.557,31.2h14.732l4.961,7.862h9.389Z" transform="translate(-8.166 0.095)" fill="#5fb299" fill-rule="evenodd"/>
    <path id="Path_2794" data-name="Path 2794" d="M87.995,0H55.86L50.9,7.862,83.11,7.786Z" transform="translate(-12.048)" fill="#5fb299" fill-rule="evenodd"/>
    <path id="Path_2795" data-name="Path 2795" d="M.157,66.49V63.132A3.959,3.959,0,0,0-.224,61.3H3.9l-.534,1.145a4.018,4.018,0,0,0-1.985-.382H1.3v2.443h2.29l-.687.916a15.254,15.254,0,0,0-1.6-.305v2.519h.305A8.77,8.77,0,0,0,4.355,67.1l-.534,1.145H-.3A3.546,3.546,0,0,0,.157,66.49Z" transform="translate(0.071 -14.51)" fill="#5fb299" fill-rule="evenodd"/>
    <path id="Path_2796" data-name="Path 2796" d="M12.374,63.132v4.427a9.163,9.163,0,0,0,2.9-.611c-.229.382-.382.84-.611,1.221H11a4.351,4.351,0,0,0,.305-1.679V63.132A5.131,5.131,0,0,0,11,61.3h1.832A3.275,3.275,0,0,0,12.374,63.132Z" transform="translate(-2.604 -14.51)" fill="#5fb299" fill-rule="evenodd"/>
    <path id="Path_2797" data-name="Path 2797" d="M21.78,66.49V63.132A3.959,3.959,0,0,0,21.4,61.3H25.52l-.534,1.145A4.018,4.018,0,0,0,23,62.063h-.076v2.443h2.29l-.611.916c-.382-.076-.992-.229-1.679-.305v2.519h.305a8,8,0,0,0,2.748-.534l-.534,1.145H21.4A3.479,3.479,0,0,0,21.78,66.49Z" transform="translate(-5.065 -14.51)" fill="#5fb299" fill-rule="evenodd"/>
    <path id="Path_2798" data-name="Path 2798" d="M36.194,68.322a4.62,4.62,0,0,1-2.443-.687,3.335,3.335,0,0,1-1.45-2.748,3.44,3.44,0,0,1,1.45-2.748,4.8,4.8,0,0,1,2.9-.84,5.673,5.673,0,0,1,1.908.229l-.076,1.221A3.584,3.584,0,0,0,36.5,62.14a2.586,2.586,0,0,0-2.824,2.748,2.469,2.469,0,0,0,2.748,2.519,3.284,3.284,0,0,0,2.29-.84v1.221A8.786,8.786,0,0,1,36.194,68.322Z" transform="translate(-7.646 -14.51)" fill="#5fb299" fill-rule="evenodd"/>
    <path id="Path_2799" data-name="Path 2799" d="M45.6,62.521l.382-1.221H51.7l-.534,1.221a4.47,4.47,0,0,0-2.137-.382V66.49a3.04,3.04,0,0,0,.382,1.679H47.582a4.351,4.351,0,0,0,.305-1.679V62.14A5.562,5.562,0,0,0,45.6,62.521Z" transform="translate(-10.793 -14.51)" fill="#5fb299" fill-rule="evenodd"/>
    <path id="Path_2800" data-name="Path 2800" d="M59.95,62.087c1.145,0,1.679.534,1.679,1.3,0,.84-.611,1.3-1.679,1.527Zm0,4.427v-1.45c1.527,2.137,2.6,3.13,2.9,3.13H64a14.525,14.525,0,0,1-2.6-3.13c.992-.305,1.527-.916,1.527-1.679,0-1.3-.992-1.985-3.206-1.985H58.5a5.131,5.131,0,0,1,.305,1.832V66.59A3.883,3.883,0,0,1,58.5,68.27h1.832A2.838,2.838,0,0,1,59.95,66.514Z" transform="translate(-13.847 -14.533)" fill="#5fb299" fill-rule="evenodd"/>
    <path id="Path_2801" data-name="Path 2801" d="M74.346,67.483a2.722,2.722,0,0,1-2.137-.992,3.494,3.494,0,0,1-.611-1.832,2.345,2.345,0,0,1,2.443-2.519,2.586,2.586,0,0,1,2.214,1.145,3.607,3.607,0,0,1,.534,1.679A2.345,2.345,0,0,1,74.346,67.483Zm3.664-2.748a3.152,3.152,0,0,0-1.145-2.519,3.852,3.852,0,0,0-2.6-.916,3.971,3.971,0,0,0-3.053,1.221,2.936,2.936,0,0,0-.916,2.214,3.519,3.519,0,0,0,1.3,2.748,4.522,4.522,0,0,0,2.519.84,3.852,3.852,0,0,0,2.6-.916A3.593,3.593,0,0,0,78.01,64.735Z" transform="translate(-16.64 -14.51)" fill="#5fb299" fill-rule="evenodd"/>
    <path id="Path_2802" data-name="Path 2802" d="M87.514,68.193H85.835a3.373,3.373,0,0,0,.382-1.679V62.392L85.3,61.4h1.908v.076c0,.305.229.534.382.84l3.435,4.351V63.232A5.131,5.131,0,0,0,90.72,61.4H92.4a3.873,3.873,0,0,0-.305,1.832V66.59a10.778,10.778,0,0,0,.076,1.679H90.644a2.992,2.992,0,0,0-.305-.687l-3.206-3.969v2.9A5.432,5.432,0,0,0,87.514,68.193Z" transform="translate(-20.19 -14.533)" fill="#5fb299" fill-rule="evenodd"/>
    <path id="Path_2803" data-name="Path 2803" d="M101.848,63.132V66.49a3.04,3.04,0,0,0,.382,1.679H100.4a4.351,4.351,0,0,0,.305-1.679V63.132A5.131,5.131,0,0,0,100.4,61.3h1.832A5.247,5.247,0,0,0,101.848,63.132Z" transform="translate(-23.764 -14.51)" fill="#5fb299" fill-rule="evenodd"/>
    <path id="Path_2804" data-name="Path 2804" d="M112.092,68.322a5.326,5.326,0,0,1-2.443-.687,3.335,3.335,0,0,1-1.45-2.748,3.44,3.44,0,0,1,1.45-2.748,4.963,4.963,0,0,1,3.053-.84,5.465,5.465,0,0,1,1.832.229V62.75a3.906,3.906,0,0,0-2.137-.611,2.564,2.564,0,0,0-2.748,2.748,2.348,2.348,0,0,0,2.6,2.519,3.8,3.8,0,0,0,2.443-.84v1.221A9.242,9.242,0,0,1,112.092,68.322Z" transform="translate(-25.61 -14.51)" fill="#5fb299" fill-rule="evenodd"/>
    <path id="Path_2805" data-name="Path 2805" d="M130.222,65.222l.992-1.908.916,1.908Zm-.382.763h2.748l.534,1.145a1.824,1.824,0,0,1,.229.687v.305h1.908a7.035,7.035,0,0,1-.992-1.45L131.444,61.1l-2.9,5.343a6.643,6.643,0,0,1-1.145,1.6h1.832c-.076,0-.076-.076-.076-.229a1.848,1.848,0,0,1,.305-.992Z" transform="translate(-30.155 -14.462)" fill="#5fb299" fill-rule="evenodd"/>
    <path id="Path_2806" data-name="Path 2806" d="M143.7,62.087c1.145,0,1.832.534,1.832,1.3,0,.84-.611,1.3-1.832,1.527Zm0,4.427v-1.45c1.6,2.137,2.748,3.13,3.053,3.13h1.145a14.525,14.525,0,0,1-2.6-3.13c.992-.305,1.527-.916,1.527-1.679,0-1.3-1.145-1.985-3.206-1.985H142.4a5.131,5.131,0,0,1,.305,1.832V66.59a3.883,3.883,0,0,1-.305,1.679h1.832A2.523,2.523,0,0,1,143.7,66.514Z" transform="translate(-33.705 -14.533)" fill="#5fb299" fill-rule="evenodd"/>
    <path id="Path_2807" data-name="Path 2807" d="M153.3,62.521l.305-1.221h5.725l-.534,1.221a4.018,4.018,0,0,0-1.985-.382V66.49a3.883,3.883,0,0,0,.305,1.679h-1.756a4.351,4.351,0,0,0,.305-1.679V62.14A5.5,5.5,0,0,0,153.3,62.521Z" transform="translate(-36.286 -14.51)" fill="#5fb299" fill-rule="evenodd"/>
    <path id="Path_2808" data-name="Path 2808" d="M167.832,67.406c.687,0,1.145-.305,1.145-.84,0-.687-.611-.992-1.45-1.45-.992-.534-1.527-.916-1.527-1.832a2.1,2.1,0,0,1,2.29-1.985,3.557,3.557,0,0,1,1.45.229l-.076,1.221a1.527,1.527,0,0,0-1.3-.611,1.049,1.049,0,0,0-1.145.992c0,.611.534.84,1.221,1.221.534.305.916.382,1.221.84a1.423,1.423,0,0,1,.534,1.221c0,1.145-.916,1.908-2.6,1.908a3.457,3.457,0,0,1-1.221-.229v-1.6A1.651,1.651,0,0,0,167.832,67.406Z" transform="translate(-39.292 -14.51)" fill="#5fb299" fill-rule="evenodd"/>
    <path id="Path_2809" data-name="Path 2809" d="M175.506,61.476v.305h-.687v1.832h-.534V61.782H173.6v-.305Zm1.069,0,.611,1.45.534-1.45h.687v2.137h-.534V61.858l-.611,1.679h-.305l-.611-1.679v1.679h-.534V61.4h.763Z" transform="translate(-41.09 -14.533)" fill="#5fb299" fill-rule="evenodd"/>
  </g>
</svg>
