<svg xmlns="http://www.w3.org/2000/svg" width="191.127" height="41.653" viewBox="0 0 191.127 41.653">
  <g id="svgexport-1_1_" data-name="svgexport-1 (1)" transform="translate(0.004 -0.003)" style="isolation: isolate">
    <g id="Group_7" data-name="Group 7" transform="translate(50.006 10.769)">
      <path id="Battle.Games" d="M8.643-56.207V-73.06H13.99a6.319,6.319,0,0,1,3.872,1.069,3.324,3.324,0,0,1,1.428,2.785,3.977,3.977,0,0,1-.811,2.491,4.375,4.375,0,0,1-2.245,1.5v.047a4.4,4.4,0,0,1,2.779,1.287,3.919,3.919,0,0,1,1.04,2.826,4.245,4.245,0,0,1-1.7,3.5,6.747,6.747,0,0,1-4.3,1.34Zm2.785-14.608v4.795h1.81a3.476,3.476,0,0,0,2.286-.687,2.386,2.386,0,0,0,.829-1.945q0-2.162-2.891-2.162Zm0,7.039v5.335h2.386a3.628,3.628,0,0,0,2.415-.723,2.473,2.473,0,0,0,.852-1.992q0-2.621-3.631-2.621Zm20.683,7.568H29.467v-1.88H29.42a3.981,3.981,0,0,1-3.655,2.162,3.85,3.85,0,0,1-2.779-.964,3.371,3.371,0,0,1-1-2.55q0-3.408,3.925-3.972l3.573-.505q0-2.574-2.444-2.574a5.806,5.806,0,0,0-3.878,1.481V-67.4a8.457,8.457,0,0,1,4.4-1.128q4.56,0,4.56,4.489Zm-2.632-5.911-2.527.353a4,4,0,0,0-1.769.57,1.665,1.665,0,0,0-.593,1.463,1.6,1.6,0,0,0,.546,1.252,2.116,2.116,0,0,0,1.463.488,2.7,2.7,0,0,0,2.062-.876,3.1,3.1,0,0,0,.817-2.2Zm12.3,5.782a4.725,4.725,0,0,1-2.1.4q-3.5,0-3.5-3.361v-6.8h-2.01v-2.139h2.01v-2.785L38.9-71.8v3.561h2.879V-66.1H38.9v6.017a2.371,2.371,0,0,0,.388,1.528,1.61,1.61,0,0,0,1.293.458,1.874,1.874,0,0,0,1.2-.4Zm8.7,0a4.725,4.725,0,0,1-2.1.4q-3.5,0-3.5-3.361v-6.8h-2.01v-2.139h2.01v-2.785L47.6-71.8v3.561H50.48V-66.1H47.6v6.017a2.371,2.371,0,0,0,.388,1.528,1.61,1.61,0,0,0,1.293.458,1.874,1.874,0,0,0,1.2-.4Zm5.089.129H52.83V-74.023h2.738Zm13.738-5.277H61.1a3.468,3.468,0,0,0,1.028,2.574,3.826,3.826,0,0,0,2.7.9,5.947,5.947,0,0,0,3.537-1.152v2.2a8.082,8.082,0,0,1-4.348,1.034,5.383,5.383,0,0,1-4.166-1.639,6.557,6.557,0,0,1-1.51-4.613A6.412,6.412,0,0,1,60-66.755a5.439,5.439,0,0,1,4.131-1.769,4.743,4.743,0,0,1,3.819,1.587,6.587,6.587,0,0,1,1.351,4.407Zm-2.632-1.927A3.513,3.513,0,0,0,65.98-65.7a2.317,2.317,0,0,0-1.88-.817,2.646,2.646,0,0,0-1.992.858,3.919,3.919,0,0,0-1,2.245Zm25.3,6.052a12.058,12.058,0,0,1-5.864,1.434,8.163,8.163,0,0,1-6.052-2.327,8.348,8.348,0,0,1-2.315-6.158,8.653,8.653,0,0,1,2.533-6.422,8.761,8.761,0,0,1,6.434-2.509,11.982,11.982,0,0,1,4.724.823v2.879a8.132,8.132,0,0,0-4.619-1.293A5.88,5.88,0,0,0,82.4-69.158a6.322,6.322,0,0,0-1.722,4.6A6.621,6.621,0,0,0,82.163-60a5.109,5.109,0,0,0,4.019,1.663A6.362,6.362,0,0,0,89.19-59v-4.007H85.641v-2.35h6.334Zm12.563,1.152h-2.644v-1.88h-.047a3.981,3.981,0,0,1-3.655,2.162,3.85,3.85,0,0,1-2.779-.964,3.371,3.371,0,0,1-1-2.55q0-3.408,3.925-3.972l3.573-.505q0-2.574-2.444-2.574a5.806,5.806,0,0,0-3.878,1.481V-67.4a8.457,8.457,0,0,1,4.4-1.128q4.56,0,4.56,4.489Zm-2.632-5.911-2.527.353a4,4,0,0,0-1.769.57,1.665,1.665,0,0,0-.593,1.463,1.6,1.6,0,0,0,.546,1.252,2.116,2.116,0,0,0,1.463.488,2.7,2.7,0,0,0,2.062-.876,3.1,3.1,0,0,0,.817-2.2Zm23.95,5.911H123.13v-6.558A5.315,5.315,0,0,0,122.6-65.5a1.967,1.967,0,0,0-1.8-.846,2.174,2.174,0,0,0-1.816,1.069,4.364,4.364,0,0,0-.746,2.562v6.511h-2.738v-6.781q0-3.361-2.374-3.361a2.141,2.141,0,0,0-1.816,1.011,4.456,4.456,0,0,0-.711,2.621v6.511h-2.726V-68.241h2.726v1.9h.047a4.169,4.169,0,0,1,3.8-2.186,3.579,3.579,0,0,1,2.18.687,3.424,3.424,0,0,1,1.275,1.8,4.294,4.294,0,0,1,4-2.491q3.972,0,3.972,4.9Zm13.515-5.277h-8.2A3.468,3.468,0,0,0,132.2-58.91a3.826,3.826,0,0,0,2.7.9,5.947,5.947,0,0,0,3.537-1.152v2.2a8.082,8.082,0,0,1-4.348,1.034,5.383,5.383,0,0,1-4.166-1.639,6.557,6.557,0,0,1-1.51-4.613,6.412,6.412,0,0,1,1.663-4.577,5.439,5.439,0,0,1,4.131-1.769,4.743,4.743,0,0,1,3.819,1.587,6.587,6.587,0,0,1,1.351,4.407Zm-2.632-1.927a3.513,3.513,0,0,0-.693-2.286,2.317,2.317,0,0,0-1.88-.817,2.646,2.646,0,0,0-1.992.858,3.919,3.919,0,0,0-1,2.245Zm4.477,6.828V-59.11a5.439,5.439,0,0,0,3.373,1.163q2.468,0,2.468-1.457a1.148,1.148,0,0,0-.212-.7,2.019,2.019,0,0,0-.57-.511,4.481,4.481,0,0,0-.846-.4q-.488-.176-1.087-.4a11.507,11.507,0,0,1-1.334-.623,4.03,4.03,0,0,1-.987-.746,2.817,2.817,0,0,1-.593-.946,3.483,3.483,0,0,1-.2-1.234,2.852,2.852,0,0,1,.411-1.534,3.574,3.574,0,0,1,1.1-1.116,5.3,5.3,0,0,1,1.575-.682,7.209,7.209,0,0,1,1.822-.229,8.281,8.281,0,0,1,2.985.505v2.386a5.032,5.032,0,0,0-2.914-.87,3.806,3.806,0,0,0-.934.106,2.411,2.411,0,0,0-.711.294,1.445,1.445,0,0,0-.458.452,1.08,1.08,0,0,0-.165.582,1.243,1.243,0,0,0,.165.658,1.494,1.494,0,0,0,.488.476,4.213,4.213,0,0,0,.776.376q.452.17,1.04.37a15.193,15.193,0,0,1,1.393.646,4.706,4.706,0,0,1,1.052.746,2.925,2.925,0,0,1,.67.964,3.272,3.272,0,0,1,.235,1.3,2.968,2.968,0,0,1-.423,1.6,3.527,3.527,0,0,1-1.128,1.128,5.281,5.281,0,0,1-1.628.664,8.456,8.456,0,0,1-1.945.217A8.2,8.2,0,0,1,141.216-56.584Z" transform="translate(-8.643 74.023)" fill="#5fb299"/>
    </g>
    <path id="Subtraction_2" data-name="Subtraction 2" d="M-420.722-212.828a5.571,5.571,0,0,1-2.8-.753l-1.826-1.061c.152-9.584.23-15.3.23-17,.014-.1.028-.187.041-.265v-.753a.955.955,0,0,1,.954-.954h5.74a1.911,1.911,0,0,1,1.908,1.908,1.91,1.91,0,0,1-1.909,1.907h-4.143l.328.526a6.008,6.008,0,0,0,5.408,3.116,4.714,4.714,0,0,0,.986-.1,5.134,5.134,0,0,0,4.2-4.963,6.047,6.047,0,0,0-2.437-5.051c.014,0,1.268-.3,1.434-2.744a4.441,4.441,0,0,0-1.12-3.371,5.424,5.424,0,0,0-3.673-1.4h-11.267v27.2l-7.889-4.585a5.65,5.65,0,0,1-2.8-4.883l.018-15.2a5.65,5.65,0,0,1,2.79-4.864l13.069-7.618a5.568,5.568,0,0,1,2.8-.753,5.569,5.569,0,0,1,2.794.752l13.028,7.573a5.65,5.65,0,0,1,2.8,4.884l-.018,15.2a5.65,5.65,0,0,1-2.79,4.865l-13.069,7.618a5.57,5.57,0,0,1-2.8.758Zm2.345-23.868h-5.74a.955.955,0,0,1-.954-.954v-1.908a.955.955,0,0,1,.954-.954h5.74a1.911,1.911,0,0,1,1.908,1.908,1.911,1.911,0,0,1-1.909,1.908Z" transform="translate(439.34 254.483)" fill="#5fb299"/>
  </g>
</svg>
