<svg xmlns="http://www.w3.org/2000/svg" width="177.518" height="41.314" viewBox="0 0 177.518 41.314">
  <g id="Layer_2" data-name="Layer 2" transform="translate(0 0.019)" style="isolation: isolate">
    <g id="Layer_1" data-name="Layer 1" transform="translate(0 -0.019)">
      <path id="Path_10500" data-name="Path 10500" d="M142.1,54.1l-3.944,9.919L132.917,52.74l-5.037,11.237-3.913-9.88H118.62l8.756,19.023,5.593-11.351L138.7,73.119,147.42,54.1Z" transform="translate(-71.835 -31.931)" fill="#5a7daa"/>
      <path id="Path_10501" data-name="Path 10501" d="M198.39,56.18V74h4.883V56.18Z" transform="translate(-120.142 -34.015)" fill="#5a7daa"/>
      <path id="Path_10502" data-name="Path 10502" d="M235.041,59.855a2.618,2.618,0,0,0-2.248-.927,3.79,3.79,0,0,0-1.862.446,2.978,2.978,0,0,0-1.238,1.27,4.118,4.118,0,0,0-.426,1.917v10.85H224.23V55.588h5.037V58.3a5.79,5.79,0,0,1,2.15-2.3,6.232,6.232,0,0,1,3.234-.789,5.919,5.919,0,0,1,4.733,1.8,7.4,7.4,0,0,1,1.55,5.021V73.419h-5.2V62.561A4.44,4.44,0,0,0,235.041,59.855Z" transform="translate(-135.791 -33.422)" fill="#5a7daa"/>
      <path id="Path_10503" data-name="Path 10503" d="M297.332,41.013a8.228,8.228,0,0,0-3.155-3.155,8.511,8.511,0,0,0-4.224-1.108,7.048,7.048,0,0,0-3.944,1.124,7.305,7.305,0,0,0-2.15,2.177V24.74H278.85V54.964h5.037V52.057a7.363,7.363,0,0,0,2.15,2.181,7.048,7.048,0,0,0,3.944,1.124,8.551,8.551,0,0,0,4.193-1.1,8.184,8.184,0,0,0,3.155-3.179,9.947,9.947,0,0,0,1.183-5.037A9.943,9.943,0,0,0,297.332,41.013Zm-4.65,7.809a4.587,4.587,0,0,1-1.763,1.783,4.895,4.895,0,0,1-2.422.619,4.421,4.421,0,0,1-2.189-.6,4.678,4.678,0,0,1-1.743-1.763,6.078,6.078,0,0,1,0-5.581,4.622,4.622,0,0,1,1.743-1.763,4.382,4.382,0,0,1,2.189-.6,4.855,4.855,0,0,1,2.422.619,4.563,4.563,0,0,1,1.763,1.783,6.074,6.074,0,0,1,0,5.522Z" transform="translate(-168.868 -14.975)" fill="#5a7daa"/>
      <path id="Path_10504" data-name="Path 10504" d="M343.953,56.18V74H339.07V56.18Z" transform="translate(-205.336 -34.015)" fill="#5a7daa"/>
      <path id="Path_10505" data-name="Path 10505" d="M377.34,56.492l-2.288,4.264a4.261,4.261,0,0,0-1.025-.718,3.006,3.006,0,0,0-1.3-.252,2.544,2.544,0,0,0-1.578.5,3.005,3.005,0,0,0-.986,1.416,6.424,6.424,0,0,0-.331,2.189v9.466H364.9V55.526h4.922v2.2a6.765,6.765,0,0,1,1.55-1.641,4.477,4.477,0,0,1,2.714-.986,4.9,4.9,0,0,1,1.838.347,3.3,3.3,0,0,1,1.416,1.045Z" transform="translate(-220.979 -33.36)" fill="#5a7daa"/>
      <path id="Path_10506" data-name="Path 10506" d="M414.842,24.74V40.008a7.178,7.178,0,0,0-2.094-2.15,7.1,7.1,0,0,0-3.972-1.124,8.547,8.547,0,0,0-4.2,1.124,8.188,8.188,0,0,0-3.155,3.155,9.943,9.943,0,0,0-1.2,5.056,9.947,9.947,0,0,0,1.2,5.037,8.144,8.144,0,0,0,3.155,3.179,8.586,8.586,0,0,0,4.185,1.085,7,7,0,0,0,6.086-3.266v2.879h5.037V24.74Zm-.678,24.1a4.705,4.705,0,0,1-1.743,1.763,4.433,4.433,0,0,1-2.189.6,4.918,4.918,0,0,1-2.4-.619,4.555,4.555,0,0,1-1.787-1.783,6.074,6.074,0,0,1,0-5.522,4.532,4.532,0,0,1,1.783-1.783,4.875,4.875,0,0,1,2.4-.619,4.394,4.394,0,0,1,2.189.6,4.65,4.65,0,0,1,1.743,1.763,6.078,6.078,0,0,1,0,5.581Z" transform="translate(-242.361 -14.975)" fill="#5a7daa"/>
      <path id="Path_10507" data-name="Path 10507" d="M81.182.249A97.025,97.025,0,0,0,69.847,3.6c-.907.319-1.8.651-2.682,1-.623.245-1.246.489-1.858.745l-.761.323c-.852.375-1.7.749-2.544,1.136s-1.66.789-2.477,1.223S57.888,8.871,57.08,9.3s-1.578.864-2.343,1.325c-1.534.923-3.049,1.858-4.492,2.875q-1.337.911-2.631,1.87Q46.8,15.982,46,16.609c-.69.536-1.369,1.081-2.039,1.641l-.572.5L39.8,41.3,36.187,18.688c-1.365-1.144-2.761-2.244-4.2-3.305q-1.112-.824-2.272-1.613c-.7-.481-1.412-.954-2.138-1.408s-1.451-.915-2.193-1.353-1.5-.856-2.256-1.278S21.547,8.906,20.758,8.5q-2.366-1.242-4.891-2.319c-1.633-.7-3.309-1.361-5.021-1.992A105.122,105.122,0,0,0,0,.856,38.858,38.858,0,0,1,6.05.718a58.634,58.634,0,0,1,5.916.572,58.373,58.373,0,0,1,8.085,1.787q1.613.481,3.155,1.053,1.333.5,2.639,1.018c.9.363,1.763.757,2.611,1.152s1.684.82,2.5,1.266,1.609.911,2.4,1.384A58.065,58.065,0,0,1,39.8,13.486c.67-.556,1.361-1.108,2.055-1.645q2.224-1.692,4.65-3.211A57.546,57.546,0,0,1,51.57,5.838c.876-.426,1.775-.832,2.682-1.219s1.822-.714,2.741-1.065c.43-.166.872-.323,1.313-.477,1.44-.493,2.93-.927,4.417-1.306.978-.245,1.972-.465,2.962-.667S67.693.738,68.707.588A59.044,59.044,0,0,1,74.875.024a38.013,38.013,0,0,1,6.307.225Z" transform="translate(0 0.019)" fill="#5a7daa"/>
      <path id="Path_10508" data-name="Path 10508" d="M89.088,7.83l-1.3.726c-.911.509-1.822.978-2.729,1.447s-1.818.958-2.678,1.444c-1.763.919-3.443,1.846-5.08,2.737s-3.179,1.806-4.662,2.733c-.7.442-1.388.891-2.059,1.341-2.008-1.317-4.165-2.556-6.453-3.759-.789-.414-1.578-.836-2.406-1.254s-1.66-.82-2.508-1.246-1.708-.848-2.591-1.27-1.751-.86-2.635-1.309L50.83,7.842A94.265,94.265,0,0,0,89.088,7.83Z" transform="translate(-30.782 -4.734)" fill="#5a7daa"/>
    </g>
  </g>
</svg>
