<svg xmlns="http://www.w3.org/2000/svg" width="253.798" height="26.08" viewBox="0 0 253.798 26.08">
  <g id="Layer_2" data-name="Layer 2" transform="translate(-0.005)" style="isolation: isolate">
    <g id="Layer_1" data-name="Layer 1" transform="translate(0.005 0)">
      <path id="Path_10509" data-name="Path 10509" d="M22.617,21.195c-.052-.322-.1-.564-.137-.717a.366.366,0,0,0-.224-.29.959.959,0,0,0-.465,0c-.2.032-.491.07-.871.107h-.752a.752.752,0,0,1,.058-.709c.142-.29.311-.439.505-.439h.253c.076,0,.116-.061.116-.166,0-.038-.139-.128-.415-.27s-.581-.29-.924-.43a9.486,9.486,0,0,0-.953-.349c-.29-.09-.465-.116-.505-.078a1.452,1.452,0,0,0-.1.534,5.266,5.266,0,0,0,.017.773c.026.29.061.546.107.8a1.531,1.531,0,0,0,.145.494c.09.1.168.2.235.29a.192.192,0,0,1-.041.27,1.037,1.037,0,0,1-.767.29.979.979,0,0,1-.749-.29,1.452,1.452,0,0,1-.163-.691V18.758a11.407,11.407,0,0,0-.1-1.452,9.383,9.383,0,0,1-.1-1.176,5.868,5.868,0,0,1-.212-2.748,5.74,5.74,0,0,1,.776-2.341,1.589,1.589,0,0,1,.8-.593,8.441,8.441,0,0,1,1.827-.311A9.963,9.963,0,0,0,21.156,10a.781.781,0,0,0,.543-.32,1.435,1.435,0,0,0,.166-.738V7.514c0-.558,0-.993-.029-1.31a4.79,4.79,0,0,0-.1-.77,1.2,1.2,0,0,0-.215-.476,5.264,5.264,0,0,0-.418-.473,3.82,3.82,0,0,1-1.06-.639,10.968,10.968,0,0,1-1.188-1.057q-.709-.41-1.351-.764a2.324,2.324,0,0,0-.915-.351,6.443,6.443,0,0,0-.68-.229,7.753,7.753,0,0,0-.758-.166,4.337,4.337,0,0,0-.651-.058.6.6,0,0,0-.34.058,6.039,6.039,0,0,1-1.322.177l-1.2.34a3.7,3.7,0,0,0-1.052.447,12.836,12.836,0,0,1-2.033.787q-1.211.36-3.6.9a20.812,20.812,0,0,0-2.751.633,4.619,4.619,0,0,0-1.194.476,1.4,1.4,0,0,0-.195.813Q.779,6.517.64,7.508V8.821a6.521,6.521,0,0,0,.029.688.5.5,0,0,0,.107.29.793.793,0,0,0,.235.125c.18.1.4.241.668.41l.828.523A15.008,15.008,0,0,0,3.78,11.862a3.462,3.462,0,0,0,1.049.485,4.357,4.357,0,0,0,1.2.116q.671-.02,1.743-.1a6.771,6.771,0,0,0,1.508-.125,2.864,2.864,0,0,0,.941-.418,2.786,2.786,0,0,1,1.115-.436.549.549,0,0,1,.581.241,3.907,3.907,0,0,1,.195,1.4c.052.88.1,1.856.1,2.94v3.009a13.4,13.4,0,0,1-.087,1.682,2.206,2.206,0,0,1-.932.924,6.19,6.19,0,0,1-1.906.767,5.1,5.1,0,0,1-1.107.128.5.5,0,0,1-.389-.322.7.7,0,0,1,.064-.715,1.686,1.686,0,0,1,1.066-.427,6.9,6.9,0,0,0,1.322-.29,1.249,1.249,0,0,0,.72-.651,3.486,3.486,0,0,0,.253-1.388c0-.61,0-1.452-.041-2.547a20.6,20.6,0,0,0-.1-2.155c-.064-.581-.1-.947-.1-1.052a2.489,2.489,0,0,0-.935.372,3.486,3.486,0,0,1-.668.261.822.822,0,0,1-.654-.049,9.566,9.566,0,0,0-1,.087,10.44,10.44,0,0,1-1.252.087,8.517,8.517,0,0,0-.895.157.741.741,0,0,0-.447.27,1.057,1.057,0,0,0-.145.581v1.078A5.876,5.876,0,0,1,5.014,17.4a3.663,3.663,0,0,1-.232.622,5.6,5.6,0,0,1-.712.378c-.317.151-.668.29-1.057.459s-.781.29-1.162.418a6.634,6.634,0,0,1-1,.241,1.31,1.31,0,0,0-.764.383,3.03,3.03,0,0,0,0,1.5,6.457,6.457,0,0,0,.29,1.418,3.834,3.834,0,0,0,.439.837,3.712,3.712,0,0,0,.93.651,14.52,14.52,0,0,0,1.412.7q.752.325,1.409.581a6.727,6.727,0,0,0,.956.322,7.5,7.5,0,0,1,.837.049,2.033,2.033,0,0,1,.854.32,1.72,1.72,0,0,0,1.139.581,8.621,8.621,0,0,0,1.874-.224q1.049-.192,2.577-.581t3.05-.825q1.525-.436,2.818-.871a15.265,15.265,0,0,0,1.874-.717,4.627,4.627,0,0,1,.651-.253,2.3,2.3,0,0,1,.671-.116.979.979,0,0,0,.72-.543A3.547,3.547,0,0,0,22.617,21.195ZM5.232,7.8a7.648,7.648,0,0,1-2.155-.871,6.32,6.32,0,0,1-1.566-.816.6.6,0,0,1-.125-.7A.436.436,0,0,1,1.9,5.2a5.327,5.327,0,0,1,1.362.6,11.244,11.244,0,0,0,1.185.546c.43.168.784.29,1.069.386a1.422,1.422,0,0,1,.871.418.4.4,0,0,1-.107.534C6.173,7.877,5.813,7.917,5.232,7.8ZM7.46,11.667A1.557,1.557,0,0,1,7.207,12a.581.581,0,0,1-.523-.1,1.1,1.1,0,0,1-.36-.5,1.827,1.827,0,0,1-.116-.717,1.377,1.377,0,0,1,.244-.749c.18-.363.412-.433.7-.212a1.611,1.611,0,0,1,.43,1.322,1.249,1.249,0,0,1-.119.622ZM5.168,22.043a5.249,5.249,0,0,1-1.534-.267Q1.6,20.922,1.572,20.085q0-.27.505-.244a3.985,3.985,0,0,1,1.362.439c.465.195.848.343,1.144.447s.546.2.741.29a.349.349,0,0,1,.261.157.656.656,0,0,1,.125.427C5.711,21.88,5.523,22.029,5.168,22.043Zm1.67-3.285a2.925,2.925,0,0,1-.825-.543.45.45,0,0,1-.107-.564c.221-.363.712-.363,1.479,0a1.034,1.034,0,0,0,.494.261,2.266,2.266,0,0,0,.651.107,3.416,3.416,0,0,1,1.2.5c.328.227.494.43.494.61.09.468-.073.665-.494.581a21.024,21.024,0,0,1-2.887-.95Zm1.691,6.213a.523.523,0,0,1-.145.418c-.1.084-.235.076-.418-.029-.195,0-.308-.064-.34-.195a3.843,3.843,0,0,1-.046-.776c-.1-.363-.116-.581-.032-.642a.7.7,0,0,1,.418-.1.543.543,0,0,1,.555.378A1.545,1.545,0,0,1,8.529,24.971ZM15.556,6.962c-.5.174-1.028.354-1.586.534q-1.557.427-2.826.767a8.453,8.453,0,0,1-1.682.34c-.375-.026-.564-.148-.564-.369a.473.473,0,0,1-.017-.349.732.732,0,0,1,.378-.32,5.987,5.987,0,0,1,.953-.36q.633-.2,1.7-.488.993-.25,2.225-.651L16.224,5.4a12.037,12.037,0,0,1,2.4-.564c.4-.015.581.116.581.386a1.162,1.162,0,0,1-.029.383.52.52,0,0,1-.29.25,5.472,5.472,0,0,1-.776.273q-.534.157-1.508.427a8.078,8.078,0,0,1-1.046.407Z" transform="translate(-0.005 -0.862)" fill="#5a7daa"/>
      <path id="Path_10510" data-name="Path 10510" d="M139.173,15.434a8.64,8.64,0,0,1-.038,1.06,1.453,1.453,0,0,1-.2.668,1.043,1.043,0,0,1-.505.389,3.593,3.593,0,0,1-.961.195c-.311.116-.7.261-1.162.439s-.845.314-1.162.415-.613.218-.9.29a2.722,2.722,0,0,1-.6.128,3.067,3.067,0,0,0-.726.183,4.261,4.261,0,0,0-1.162.651A12.543,12.543,0,0,0,129,21.729a4.778,4.778,0,0,0-1.467,2.167,6.72,6.72,0,0,0-.1,1.261c0,.52.02,1.054.058,1.6s.093,1.083.166,1.595a5.891,5.891,0,0,0,.29,1.235,2.787,2.787,0,0,0,.961,1.252,4.787,4.787,0,0,0,1.6.439,3.852,3.852,0,0,0,1.223-.049,9.466,9.466,0,0,0,1.452-.36,7.329,7.329,0,0,0,1.223-.523c.351-.195.526-.372.526-.526.1-.415,0-.636-.29-.662a7.676,7.676,0,0,0-2.033.43c-.633.154-1.162.27-1.545.349a2.118,2.118,0,0,1-.941.02.871.871,0,0,1-.543-.439,3.844,3.844,0,0,1-.351-.982,1.749,1.749,0,0,1-.183-1.214c.107-.279.29-.366.61-.261a1.037,1.037,0,0,0,.439-.154,2.87,2.87,0,0,0,.613-.488,3.038,3.038,0,0,1,.386-.224.683.683,0,0,1,.41,0,3.683,3.683,0,0,1,.7.273l1.249.6a7.408,7.408,0,0,1,.871.4,1.568,1.568,0,0,0,.581.224.956.956,0,0,1,.581.107,9.108,9.108,0,0,1,.944.447c.349.186.691.386,1.028.581a10.222,10.222,0,0,1,.857.566,1.955,1.955,0,0,1,.494,1.38,6.724,6.724,0,0,1-.29,2.033,1.685,1.685,0,0,1-.564.932,9.374,9.374,0,0,1-1.342.758,14.15,14.15,0,0,1-2.292.552c-.895.151-1.8.256-2.713.322a22.367,22.367,0,0,1-2.594.038,7.462,7.462,0,0,1-1.923-.29,3.616,3.616,0,0,1-1.563-.871,2.655,2.655,0,0,1-.749-1.232q-.235-.7-.436-1.525c-.137-.552-.253-1.1-.351-1.644s-.168-1.054-.212-1.534-.07-.871-.07-1.205a11.024,11.024,0,0,1,.215-1.452c.1-.6.212-1.235.328-1.885s.238-1.264.36-1.853a11.2,11.2,0,0,1,.36-1.371,4.468,4.468,0,0,1,1.264-1.641,8.357,8.357,0,0,1,1.923-1.313q.465-.154,1.438-.581c.648-.29,1.3-.581,1.943-.895a16.905,16.905,0,0,1,1.743-.871q.95-.415,1.418-.581c.311-.1.61-.209.895-.32a1.781,1.781,0,0,0,.6-.34,2.109,2.109,0,0,0,.534-.116,4.194,4.194,0,0,0,.712-.29,1.359,1.359,0,0,0,.581-.128c.183-.084.273-.186.273-.29a.967.967,0,0,1,.427.43,1.31,1.31,0,0,1,.369.639A8.331,8.331,0,0,1,139.173,15.434Z" transform="translate(-87.784 -9.352)" fill="#5a7daa"/>
      <path id="Path_10511" data-name="Path 10511" d="M117.159,4.786a1.162,1.162,0,0,0-.534.241,3.686,3.686,0,0,0-.517.4,1.722,1.722,0,0,0-.552.145c-.253.1-.534.221-.845.369l-1,.476c-.357.168-.688.328-1,.485-.738.311-1.473.645-2.2,1l-1.4.691a4.851,4.851,0,0,0-.912.543,7.947,7.947,0,0,0-.973.845,11.19,11.19,0,0,0-.871,1.011,5.5,5.5,0,0,0-.625,1,10.991,10.991,0,0,0-.767,2.786,25.781,25.781,0,0,0-.32,3.674,28.915,28.915,0,0,0,.174,3.828,14.169,14.169,0,0,0,.7,3.233,4.8,4.8,0,0,1,.154.871c0,.142-.052.212-.154.212a1.891,1.891,0,0,1-.808-.232,6.306,6.306,0,0,0-1.1-.407,10.541,10.541,0,0,1-1.487-.7,7.183,7.183,0,0,1-1.452-1.205A12.059,12.059,0,0,1,99.528,22.8a4.142,4.142,0,0,1-.662-1.261,8.677,8.677,0,0,1-.34-1.743c-.073-.694-.125-1.6-.166-2.713,0-.944.041-1.868.116-2.768a5.757,5.757,0,0,1,.29-1.679q.232-.871.407-1.487c.116-.41.232-.784.351-1.127a8.451,8.451,0,0,1,.4-.982c.148-.311.325-.659.534-1.049a9.054,9.054,0,0,1,2.167-2.556,20.284,20.284,0,0,1,3.117-2.109l1.508-.581a3.433,3.433,0,0,1,1.037-.261,1.85,1.85,0,0,0,.517-.128,1.429,1.429,0,0,0,.534-.29,3.091,3.091,0,0,0,.729-.107,2.963,2.963,0,0,1,.738-.131h1.284a1.124,1.124,0,0,1,.871.038,12.247,12.247,0,0,1,1.653.834,5.345,5.345,0,0,0,1.284.622,3.6,3.6,0,0,0,.834.622,2.286,2.286,0,0,1,.526.439C117.293,4.443,117.261,4.577,117.159,4.786Z" transform="translate(-69.79 -1.248)" fill="#5a7daa"/>
      <path id="Path_10512" data-name="Path 10512" d="M220.394,18.7a3.3,3.3,0,0,0-.837.174c-.383.116-.871.29-1.5.505s-1.406.505-2.353.871a7.357,7.357,0,0,1-1.513.709c-.505.168-.8.2-.895.1a.767.767,0,0,1-.709-.526,2.051,2.051,0,0,1-.09-1.284,1.577,1.577,0,0,1,.389-1.223,6.225,6.225,0,0,1,1.618-.8q.444-.137.688-.235a.746.746,0,0,0,.36-.27.99.99,0,0,0,.137-.468c0-.195.017-.471.017-.834V13.807a3.251,3.251,0,0,0-.485.058,3.7,3.7,0,0,0-.912.351,3.311,3.311,0,0,1-2.071.378c-.369-.151-.552-.677-.552-1.583a2.1,2.1,0,0,1,.523-1.874A5.667,5.667,0,0,1,214.692,10c.195-.09.479-.221.871-.389a7.676,7.676,0,0,1,1.162-.407,11.431,11.431,0,0,0,1.255-.378,3.274,3.274,0,0,1,.961-.244h1.011a1.336,1.336,0,0,0,.183-.72c.032-.386.1-.886.2-1.5,0-.491,0-.871-.017-1.162a2.755,2.755,0,0,0-.116-.709,1.522,1.522,0,0,0-.29-.523c-.137-.157-.328-.363-.581-.625a23.461,23.461,0,0,0-2.219-1.693,11.7,11.7,0,0,0-2.2-1.115A5.606,5.606,0,0,0,212.825.07a10.373,10.373,0,0,0-2.35.273c-.311.1-.694.209-1.147.32s-.871.212-1.264.29q-1.226.29-2.806.758t-3.247,1.06a20.977,20.977,0,0,0-2.379.764,3.4,3.4,0,0,0-1.011.6,1.785,1.785,0,0,0-.224.912c-.046.505-.067,1.127-.067,1.865s.023,1.537.067,2.391.119,1.685.224,2.486c0,.261,0,.63.02,1.11s.032,1.014.058,1.6.052,1.205.078,1.853.038,1.272.038,1.868c.041,1.113.076,1.975.107,2.582a7.69,7.69,0,0,0,.166,1.38,1.38,1.38,0,0,0,.32.662,2.99,2.99,0,0,0,.581.407,2.888,2.888,0,0,1,.758.381.953.953,0,0,0,.468.221,3.933,3.933,0,0,0,.622.526c.27.195.564.386.871.581s.6.363.871.526.5.29.651.381a3.009,3.009,0,0,0,.961.125,9.76,9.76,0,0,0,1.452-.32c.386-.09.842-.183,1.359-.273a7.665,7.665,0,0,1,1.243-.137,19.9,19.9,0,0,0,3.677-.529,25.143,25.143,0,0,0,2.777-.871q.29-.137,1.176-.427c.581-.195,1.136-.386,1.641-.581s.964-.351,1.264-.468a1.743,1.743,0,0,0,.659-.407,1,1,0,0,0,.253-.581,8.872,8.872,0,0,0,.041-.961v-1.6A.363.363,0,0,0,220.394,18.7ZM203.878,7.532c-.1.1-.29.122-.555.058a6.426,6.426,0,0,1-1.162-.447q-.735-.349-1.943-.973a6.948,6.948,0,0,1-1.086-.494.581.581,0,0,1-.317-.5q0-.134.166-.174a3.306,3.306,0,0,1,.63-.038,6.567,6.567,0,0,1,.671.038.982.982,0,0,1,.534.174c.195.1.479.241.871.41a6.307,6.307,0,0,0,1.162.389,6.951,6.951,0,0,1,.97.668.558.558,0,0,1,.215.34.8.8,0,0,1-.157.546Zm2.068,8.247c-.026,1.136-.058,2.225-.1,3.277-.1,1.2-.183,1.981-.235,2.324a.784.784,0,0,1-.369.662.346.346,0,0,1-.311.125c-.1-.017-.2-.125-.29-.32a.921.921,0,0,1-.195-.593,1.636,1.636,0,0,0,.1-.581c.023-.351.044-.8.058-1.351s.02-1.179.029-1.885,0-1.452,0-2.2q.137-2.7.195-4.284a4.892,4.892,0,0,1,.212-1.743.427.427,0,0,1,.389-.29.462.462,0,0,1,.41.29,4.574,4.574,0,0,1,.1,1.04q.038.961.038,2.4T205.946,15.779Zm3.982-8.918q-.564.145-1.115.261c-.369.078-.7.139-.991.186a5.229,5.229,0,0,1-.581.067.433.433,0,0,1-.418-.261.581.581,0,0,1,.032-.555c0-.09.122-.183.369-.29a7.468,7.468,0,0,1,.834-.29,8.473,8.473,0,0,0,1.609-.41c.871-.273,1.818-.607,2.826-1.011a19.9,19.9,0,0,1,3.654-.97c.636-.052.953.07.953.369a2.511,2.511,0,0,1-.029.447c-.02.1-.076.154-.166.154-.259.052-.683.168-1.272.351s-1.205.378-1.847.581-1.237.421-1.786.622-.924.346-1.118.436a7.476,7.476,0,0,1-.953.314Z" transform="translate(-140.722 -0.05)" fill="#5a7daa"/>
      <path id="Path_10513" data-name="Path 10513" d="M319.293,17.007a3.135,3.135,0,0,0-.351-1.426,2.614,2.614,0,0,0-.642-.871c-.218-.174-.479-.366-.776-.581a3.642,3.642,0,0,1-.581-.322,1.1,1.1,0,0,1-.418-.494c-.311-.195-.465-.351-.465-.468a3.23,3.23,0,0,1,.465-.953,7.861,7.861,0,0,0,.273-1.028A13.543,13.543,0,0,0,317,9.5a12.107,12.107,0,0,0,.058-1.293,1.85,1.85,0,0,0-.145-.828,5.475,5.475,0,0,0-1.176-1.563,7.993,7.993,0,0,0-2.089-1.272q-.932-.447-1.993-1.011A12,12,0,0,1,310,2.506a12.81,12.81,0,0,0-1.194-.688,3.486,3.486,0,0,0-.9-.32,2.457,2.457,0,0,0-.825-.02,8.445,8.445,0,0,0-.944.195c-.206.1-.45.209-.729.32s-.514.212-.709.29a3.367,3.367,0,0,0-.982.241,10.458,10.458,0,0,1-1.272.381,15.361,15.361,0,0,1-1.845.581c-.715.18-1.322.328-1.827.444l-1.089.273a2.135,2.135,0,0,0-.581.215.52.52,0,0,0-.253.328,5.6,5.6,0,0,0-.119.581,19.7,19.7,0,0,0-.116,2.033q-.041,1.566-.038,3.6t.038,4.206q.038,2.17.116,3.837c.041,1.078.078,1.908.119,2.5a7.969,7.969,0,0,0,.174,1.351,1.292,1.292,0,0,0,.32.651,3.066,3.066,0,0,0,.613.4l.8.439a3.97,3.97,0,0,1,.828.581c.29.1.619.212.961.32a2.173,2.173,0,0,1,.671.29c.195.1.505.25.932.439a8.449,8.449,0,0,1,1.107.581,7.109,7.109,0,0,0,.749.253,3.07,3.07,0,0,0,.581.1,3.439,3.439,0,0,0,.639-.017c.235-.026.532-.067.895-.119s.871-.195,1.409-.32a6.248,6.248,0,0,0,1.429-.5,16.366,16.366,0,0,0,1.7-.407q.941-.27,1.566-.427a6.85,6.85,0,0,1,1.272-.468,5.636,5.636,0,0,0,.982-.328c.195-.093.468-.224.825-.4a7.922,7.922,0,0,1,1-.415c.4-.195.784-.4,1.147-.6a1.676,1.676,0,0,0,.7-.622,3.2,3.2,0,0,0,.659-1.3,11.072,11.072,0,0,0,.418-1.937A11.3,11.3,0,0,0,319.293,17.007ZM303.242,8.025c-.206.209-.526.229-.953.061a13.879,13.879,0,0,1-2.324-1.479c-.712-.517-1.2-.895-1.452-1.127s-.366-.4-.366-.505c0-.195.017-.311.058-.349a.678.678,0,0,1,.369-.058,3.656,3.656,0,0,1,.4.029.72.72,0,0,1,.418.166c.09.052.264.16.526.328l.845.555.964.613c.337.215.642.392.915.534a3.2,3.2,0,0,1,.9.7C303.64,7.656,303.541,7.833,303.242,8.025Zm1.4,10.843q-.041,1.147-.087,2.033c-.035.581-.055,1.054-.07,1.418s-.017.564-.017.6c0,.439-.209.581-.622.407a.291.291,0,0,1-.253-.1,1.758,1.758,0,0,1-.119-.68q-.038-.581-.038-1.868V14.006q0-1.217.02-1.972a10.8,10.8,0,0,1,.067-1.107.872.872,0,0,1,.128-.43,1.162,1.162,0,0,1,.4-.311.967.967,0,0,1,.418.116c.038,0,.07.093.1.273a9.6,9.6,0,0,1,.058.973c0,.465.026,1.092.038,1.882s.02,1.789.02,2.995q0,1.3-.038,2.443Zm2.08-10.512q-.63.114-1.246.29a2.221,2.221,0,0,1-1.252.183c-.215-.084-.27-.29-.166-.581a.872.872,0,0,1,.34-.32,5.443,5.443,0,0,1,.642-.36q.357-.174.758-.331a6.407,6.407,0,0,1,.709-.232c.195,0,.436,0,.729-.02a3.242,3.242,0,0,0,.9-.174q1.786-.622,2.033,0a.546.546,0,0,1-.34.7,9.124,9.124,0,0,1-1.7.523q-.616.171-1.412.322Zm1.824,4.09c-.27-.084-.407-.331-.407-.747v-.622a.581.581,0,0,1-.311-.581.616.616,0,0,1,.311-.613c.505-.18.912-.322,1.223-.427a6.791,6.791,0,0,1,2.547-.29.839.839,0,0,1,.717.915,1.612,1.612,0,0,1-.613,1.185,4.081,4.081,0,0,1-1.836.854A3.18,3.18,0,0,1,308.546,12.446Zm6.472,7.4a1.185,1.185,0,0,1-.349.622,3.91,3.91,0,0,1-1.708.932,7.88,7.88,0,0,1-2.158.311,5.81,5.81,0,0,1-1.115-.058.6.6,0,0,1-.322-.369,1.366,1.366,0,0,1-.253-.581,4.934,4.934,0,0,1-.1-.787,4.468,4.468,0,0,1,.02-.749,1.745,1.745,0,0,1,.116-.514,1.938,1.938,0,0,1,.758-.29,17.561,17.561,0,0,1,2.324-.311,9.3,9.3,0,0,1,1.621-.119,1.548,1.548,0,0,1,1.02.311c.093,0,.151.09.177.264a4.194,4.194,0,0,1,.038.552,4.822,4.822,0,0,1-.073.787Z" transform="translate(-210.425 -1.03)" fill="#5a7daa"/>
      <path id="Path_10514" data-name="Path 10514" d="M419.931,11.952a10.707,10.707,0,0,0-.27-2.76A4.47,4.47,0,0,0,418.5,7.328a4.123,4.123,0,0,0-1.612-1.313,2.8,2.8,0,0,0-1.769.107q-1.107.174-2.283.436c-.784.174-1.525.349-2.225.517s-1.319.322-1.856.465-.921.241-1.162.29a6.7,6.7,0,0,1-1.815.322c-.357-.02-.476-.218-.36-.581a.468.468,0,0,1,.07-.273.8.8,0,0,1,.311-.212,5.978,5.978,0,0,1,.726-.273c.325-.1.758-.253,1.3-.447q.892-.174,1.865-.447a6.1,6.1,0,0,1,1.534-.27,13.186,13.186,0,0,0,2.237-.72q.256-.177-1.031-.749c-.232-.116-.6-.29-1.118-.514a9.818,9.818,0,0,1-1.3-.691A6.893,6.893,0,0,0,407.4,2.41a13.391,13.391,0,0,0-2.951.331q-.566.174-1.38.36l-1.54.351q-1.011.29-1.6.488a7.446,7.446,0,0,0-.95.383,2.565,2.565,0,0,0-.581.369c-.148.128-.314.29-.5.465-.116.247-.209.462-.29.642a2.824,2.824,0,0,0-.154.613,6.017,6.017,0,0,0-.049.825v1.3c0,.311-.02.767-.058,1.371s-.078,1.293-.116,2.068-.087,1.6-.145,2.478-.113,1.743-.166,2.577v7.024a2.2,2.2,0,0,0,.9,1.078,6.37,6.37,0,0,0,2.01.871,2.449,2.449,0,0,1,.77.311q.581.311,1.162.662.54.174,1.185.444a2.763,2.763,0,0,0,.991.273,3,3,0,0,0,.953.058,12.654,12.654,0,0,0,1.33-.166,15.03,15.03,0,0,0,1.525-.349,16.093,16.093,0,0,0,1.534-.514c.235-.119.415-.215.546-.29a.723.723,0,0,0,.29-.349,1.951,1.951,0,0,0,.116-.642c0-.273.02-.654.02-1.162a16.176,16.176,0,0,1,.067-1.786,1.452,1.452,0,0,1,.418-.854,2.729,2.729,0,0,1,.36-.311.25.25,0,0,1,.36.038,1.211,1.211,0,0,1,.581.34,11.89,11.89,0,0,1,.871.816q.468.473.932,1.02a9.988,9.988,0,0,1,.758.991c.235.494.424.767.581.816a3.059,3.059,0,0,0,1.136-.1,5.676,5.676,0,0,0,1.972-.564,1.229,1.229,0,0,0,.688-1.127,2.033,2.033,0,0,0-.436-.767c-.29-.4-.555-.781-.787-1.162a20.558,20.558,0,0,1-1.107-1.9,3.445,3.445,0,0,1-.412-1.182,1.083,1.083,0,0,1,.232-.808,4.407,4.407,0,0,1,.8-.726c.581-.43,1.083-.808,1.452-1.139a3.843,3.843,0,0,0,.871-1.028,3.082,3.082,0,0,0,.351-1.214,10.815,10.815,0,0,0-.02-1.691ZM402.979,7.56a1.859,1.859,0,0,1-1.214-.232,1.708,1.708,0,0,0-.72-.322,3.671,3.671,0,0,0-.72-.145,1.522,1.522,0,0,1-1.02-.651c-.186-.317-.093-.581.29-.825a2.033,2.033,0,0,1,.915.076,8.641,8.641,0,0,1,1.293.43,7.4,7.4,0,0,1,1.162.6q.514.331.514.6C403.473,7.328,403.308,7.482,402.979,7.56Zm2.155,17.719c-.07.1-.224.087-.456-.029a.4.4,0,0,1-.29-.116,1.338,1.338,0,0,1-.186-.651q-.07-.534-.125-1.662t-.137-3.1V13.643a.6.6,0,0,1,.622-.331c.29,0,.505.2.622.564a14.5,14.5,0,0,1,.125,1.972q.049,1.682.07,3.6T405.408,23v1.8a3.569,3.569,0,0,1-.273.5Zm9.237-12.124a1.589,1.589,0,0,1-.389.581,6.1,6.1,0,0,1-.651.581,4.813,4.813,0,0,1-.738.485,3.251,3.251,0,0,1-.651.29c-.854.235-1.423.168-1.7-.195a2.894,2.894,0,0,1-.244-2,5.347,5.347,0,0,1,.29-1.115,2.033,2.033,0,0,1,.68-.581,2.9,2.9,0,0,1,1.205-.349,3.044,3.044,0,0,1,1.226.349,2.3,2.3,0,0,1,1.02.871.964.964,0,0,1-.049,1.083Z" transform="translate(-281.626 -1.71)" fill="#5a7daa"/>
      <path id="Path_10515" data-name="Path 10515" d="M520.566,18.7a3.261,3.261,0,0,0-.834.174q-.581.174-1.508.505t-2.35.871a7.309,7.309,0,0,1-1.516.709c-.505.168-.8.2-.895.1a.77.77,0,0,1-.709-.526,2.033,2.033,0,0,1-.087-1.284,1.577,1.577,0,0,1,.389-1.223,6.19,6.19,0,0,1,1.612-.8q.447-.137.688-.235a.747.747,0,0,0,.36-.27.93.93,0,0,0,.136-.468c0-.195.02-.471.02-.834V13.807a3.208,3.208,0,0,0-.485.058,3.758,3.758,0,0,0-.915.351,3.3,3.3,0,0,1-2.068.378c-.369-.151-.555-.677-.555-1.583a2.093,2.093,0,0,1,.526-1.874A5.668,5.668,0,0,1,514.864,10l.854-.389A7.712,7.712,0,0,1,516.88,9.2a11.587,11.587,0,0,0,1.252-.378,3.294,3.294,0,0,1,.961-.244H520.1a1.358,1.358,0,0,0,.186-.72c.032-.386.1-.886.2-1.5,0-.491,0-.871-.02-1.162a2.635,2.635,0,0,0-.116-.709,1.475,1.475,0,0,0-.291-.523c-.134-.157-.325-.363-.581-.625a22.745,22.745,0,0,0-2.216-1.7A11.673,11.673,0,0,0,515.076.532,5.621,5.621,0,0,0,513,.07a10.4,10.4,0,0,0-2.353.273c-.311.1-.691.209-1.144.32s-.871.212-1.264.29q-1.223.29-2.809.758t-3.236,1.06a21.075,21.075,0,0,0-2.379.764,3.4,3.4,0,0,0-1.011.6,1.755,1.755,0,0,0-.224.912c-.044.505-.07,1.127-.07,1.865s.023,1.537.07,2.391.119,1.685.224,2.486c0,.261,0,.63.017,1.11s.035,1.014.061,1.6.049,1.205.076,1.853.041,1.272.041,1.868c.038,1.113.073,1.975.1,2.582a8.266,8.266,0,0,0,.166,1.38,1.38,1.38,0,0,0,.322.662,2.9,2.9,0,0,0,.581.407,2.983,2.983,0,0,1,.758.381.947.947,0,0,0,.465.221,4.065,4.065,0,0,0,.622.526c.273.195.563.386.871.581s.607.363.871.526l.651.381a3,3,0,0,0,.961.125,9.67,9.67,0,0,0,1.452-.32c.389-.09.842-.183,1.359-.273a7.728,7.728,0,0,1,1.246-.137,19.905,19.905,0,0,0,3.666-.529,25,25,0,0,0,2.78-.871c.195-.09.581-.232,1.176-.427s1.136-.386,1.641-.581.964-.351,1.264-.468a1.771,1.771,0,0,0,.659-.407,1,1,0,0,0,.253-.581,9.013,9.013,0,0,0,.038-.961v-1.6C520.853,18.75,520.743,18.7,520.566,18.7ZM504.049,7.532c-.1.1-.29.122-.552.058a6.342,6.342,0,0,1-1.147-.447q-.741-.349-1.943-.973a6.88,6.88,0,0,1-1.089-.494.581.581,0,0,1-.328-.5c0-.09.055-.148.163-.174a3.341,3.341,0,0,1,.633-.038,6.568,6.568,0,0,1,.671.038.982.982,0,0,1,.534.174q.29.157.854.41a6.306,6.306,0,0,0,1.162.389,7.042,7.042,0,0,1,.973.668.549.549,0,0,1,.212.34.79.79,0,0,1-.142.546Zm2.071,8.247c-.026,1.136-.058,2.225-.1,3.277-.1,1.2-.18,1.981-.232,2.324a.793.793,0,0,1-.369.662.352.352,0,0,1-.311.125c-.1-.017-.2-.125-.29-.32a.924.924,0,0,1-.192-.6,1.6,1.6,0,0,0,.1-.581c.026-.351.046-.8.058-1.351s.023-1.179.029-1.885,0-1.452,0-2.2q.139-2.7.195-4.284a4.853,4.853,0,0,1,.215-1.743.424.424,0,0,1,.389-.29.459.459,0,0,1,.407.29,4.287,4.287,0,0,1,.1,1.04q.038.961.038,2.4T506.12,15.779ZM510.1,6.861c-.375.1-.749.183-1.118.261s-.7.139-.99.186a5.135,5.135,0,0,1-.581.067.433.433,0,0,1-.418-.261.581.581,0,0,1,.029-.555c0-.09.122-.183.369-.29a7.528,7.528,0,0,1,.837-.29,8.471,8.471,0,0,0,1.612-.41c.871-.273,1.815-.607,2.826-1.011a19.9,19.9,0,0,1,3.654-.97c.633-.052.95.07.95.369a2.509,2.509,0,0,1-.029.45c-.017.1-.073.154-.163.154-.261.052-.686.168-1.275.351s-1.2.378-1.845.581-1.237.421-1.789.622-.921.346-1.115.436a7.788,7.788,0,0,1-.953.311Z" transform="translate(-353.707 -0.05)" fill="#5a7daa"/>
      <path id="Path_10516" data-name="Path 10516" d="M620.063,8.681a18.776,18.776,0,0,0-.215-2.155,5.716,5.716,0,0,0-.34-1.272,9.333,9.333,0,0,0-1.049-1.139,6.494,6.494,0,0,0-1.632-1.162c-.195-.09-.45-.224-.767-.4A3.35,3.35,0,0,1,615.29,2c-.195-.093-.482-.218-.871-.381s-.671-.29-.871-.4l-.816-.29a1.417,1.417,0,0,0-1.069,0c-.195.073-.453.171-.776.29q-3.033,1.162-4.479,1.641a8.236,8.236,0,0,1-1.856.476,6.657,6.657,0,0,0-.8.078c-.378.052-.816.119-1.322.2s-1.043.186-1.615.29-1.113.238-1.63.369c-.389.116-.712.221-.964.311s-.378.18-.378.273a2.914,2.914,0,0,0-.526,1.281,8.716,8.716,0,0,0-.232,1.981c0,.195,0,.488-.02.871s-.026.837-.038,1.342-.029,1.046-.049,1.624-.046,1.147-.087,1.72q-.157,1.865-.174,3.692T596.7,20.2c.041.622.081,1.11.128,1.467a2.836,2.836,0,0,0,.241.892,2.152,2.152,0,0,0,.549.691q.363.314,1.022.8a3.639,3.639,0,0,0,.941.656q.749.418,1.592.828c.566.27,1.086.508,1.566.709a3.777,3.777,0,0,0,.871.29,3.225,3.225,0,0,0,.4-.02,1.376,1.376,0,0,0,.555-.174,1.453,1.453,0,0,1,.622-.253,3.866,3.866,0,0,1,.912-.116q1.287-.29,2.059-.517a2.725,2.725,0,0,0,1.206-.651,1.366,1.366,0,0,0,.253-.564,8.013,8.013,0,0,0,.116-1.743,6.952,6.952,0,0,1,.145-2.7,1.787,1.787,0,0,1,1.023-1.127,5.657,5.657,0,0,1,.8-.29,11.532,11.532,0,0,1,1.136-.29c.407-.081.816-.171,1.226-.244a6.437,6.437,0,0,1,1.06-.107c.375-.09.6-.1.671-.029a1.9,1.9,0,0,1,.261.4,1.508,1.508,0,0,1,.177.758c.023.4.038.79.038,1.162a3.948,3.948,0,0,1-.186,1.525.421.421,0,0,1-.581.2c-.195,0-.29-.064-.328-.195a4.762,4.762,0,0,1-.041-.776v-1.3a.5.5,0,0,0-.145-.41c-.1-.078-.244-.07-.439.02a2.707,2.707,0,0,0-.726.125c-.291.087-.627.174-1,.264a3.713,3.713,0,0,0-1.6.407c-.2.168-.29.543-.29,1.127v.468a.5.5,0,0,0,.1.311,1.663,1.663,0,0,0,.34.29c.157.11.383.259.683.439a5.311,5.311,0,0,0,1.162.581,1.406,1.406,0,0,1,.526.224,4.144,4.144,0,0,0,.813.357,3.02,3.02,0,0,0,.459.34.97.97,0,0,0,.456.119,4.035,4.035,0,0,0,.717-.061c.29-.044.715-.119,1.246-.221q.988-.139,1.641-.273c.433-.09.651-.189.651-.29a7.458,7.458,0,0,0,.2-2.08c.046-1.3.1-2.9.166-4.819q.058-2.582.058-4.479T620.063,8.681Zm-17.138-1.1a1.426,1.426,0,0,1-.72.061,3.8,3.8,0,0,1-.932-.273,3.486,3.486,0,0,1-.932-.581,3.72,3.72,0,0,0-.938-.566,2.324,2.324,0,0,1-.747-.729.619.619,0,0,1,0-.61.363.363,0,0,1,.485-.195,11.926,11.926,0,0,1,1.807.97q.7.29,1.923.932a.985.985,0,0,1,.369.581.41.41,0,0,1-.3.41Zm2.033,17.274a.412.412,0,0,1-.6-.058c-.195-.09-.29-.308-.29-.651a.691.691,0,0,1,.29-.671.537.537,0,0,1,.534,0,.581.581,0,0,1,.241.552c.107.4.049.668-.16.828Zm.369-5.031a1.81,1.81,0,0,1-.494.738c-.227.206-.386.215-.476.02a3.737,3.737,0,0,1-.174-1.566q-.017-1.429-.02-3.584c.038-1.243.076-2.2.107-2.867s.067-1.162.107-1.452.084-.471.134-.5a.291.291,0,0,1,.235.02.642.642,0,0,1,.311.067c.076.046.136.2.174.468a11.9,11.9,0,0,1,.078,1.243c0,.564.017,1.368.017,2.42Zm1.351-12.406a.529.529,0,0,1-.415.145,4.264,4.264,0,0,0-.935.581c0,.1-.073.16-.224.166s-.267,0-.357,0c-.389,0-.552-.154-.488-.459a1.589,1.589,0,0,1,.683-.871,1.92,1.92,0,0,1,1.144-.407c.389,0,.581.134.581.407.107.195.11.34.026.439Zm9.609,4.479a4.911,4.911,0,0,1-.261,1c-.11.29-.229.418-.36.418a1.569,1.569,0,0,0-.563.581,4.907,4.907,0,0,1-.816.386c-.389.157-.8.305-1.243.447s-.871.264-1.272.36a4.477,4.477,0,0,1-.871.145q-.871.157-1.069-.407a5.636,5.636,0,0,1,.1-2.295,8.339,8.339,0,0,1,.1-1.322,7.248,7.248,0,0,0,.1-.776,3.279,3.279,0,0,1,1.118-.331c.656-.131,1.557-.337,2.71-.622a3.961,3.961,0,0,1,1.72-.174.871.871,0,0,1,.581.543,2.168,2.168,0,0,1,.137.871A7.2,7.2,0,0,1,616.3,11.9Zm.915-6.434a2.475,2.475,0,0,1-.311.264.8.8,0,0,1-.447.1c-.195,0-.5,0-.915.029a6.476,6.476,0,0,0-1.185.166,13.941,13.941,0,0,1-2.719.459c-.662.017-1.037-.07-1.127-.264-.195-.195-.29-.311-.29-.349s.1-.11.29-.215a1.452,1.452,0,0,1,.494-.27,1.827,1.827,0,0,1,.651-.137,6.662,6.662,0,0,0,1.06-.107c.433-.07.845-.16,1.234-.261a6.085,6.085,0,0,1,2.632-.195q.924.215.648.776Z" transform="translate(-423.376 -0.589)" fill="#5a7daa"/>
      <path id="Path_10517" data-name="Path 10517" d="M721.543,4.246a1.52,1.52,0,0,0-.564-.581l-.825-.4a2.082,2.082,0,0,0-.651-.241c-.221-.041-.4-.078-.534-.116a4.8,4.8,0,0,1-.476-.174c-.18-.078-.407-.183-.7-.331s-.7-.351-1.214-.622a6.139,6.139,0,0,0-1.452-.555,7.552,7.552,0,0,0-1.272-.087H712.4q-.953.331-2.179.7t-2.46.712q-1.22.34-2.283.581a12.621,12.621,0,0,1-1.679.311q-2.219.468-3.021.68a2.792,2.792,0,0,0-.964.369c0,.067.139.2.418.418s.633.465,1.06.749.9.581,1.429.9,1.025.6,1.5.871.819.45.9.691-.081.36-.5.36a2.324,2.324,0,0,1-.651-.177c-.317-.116-.688-.27-1.115-.465s-.892-.418-1.391-.671-.979-.514-1.452-.787c-.221-.1-.424-.2-.613-.29a1.121,1.121,0,0,0-.436-.137c-.221,0-.372.221-.456.659a7.286,7.286,0,0,0,.047,2.062,9.273,9.273,0,0,0,.029.991,1.707,1.707,0,0,0,.137.581,1.161,1.161,0,0,0,.273.369c.11.1.244.224.4.381a3.633,3.633,0,0,0,.871.639c.369.209.709.415,1.02.622a5.421,5.421,0,0,0,.688.322,1.871,1.871,0,0,1,.555.29.558.558,0,0,1,.311.107.581.581,0,0,0,.331.107,2.821,2.821,0,0,1,.436.049,1.255,1.255,0,0,1,.613.357,4.955,4.955,0,0,0,2.37.383,13.984,13.984,0,0,0,2.855-.581l1.118-.29a2.635,2.635,0,0,1,.671-.119.712.712,0,0,1,.4.1,1.4,1.4,0,0,1,.319.331,3.028,3.028,0,0,1,.459,1.409,19.816,19.816,0,0,1,.183,2.661q.02,1.586-.087,3.564c-.07,1.322-.186,2.684-.34,4.067a3.649,3.649,0,0,1-.349,1.2.335.335,0,0,1-.488.067c-.2-.116-.328-.381-.328-.837a21.19,21.19,0,0,1,.328-2.719c.041-.828.076-1.653.107-2.469s.049-1.571.049-2.272-.017-1.33-.049-1.894-.067-1.008-.107-1.333a1,1,0,0,0-.134-.622.18.18,0,0,0-.29,0,19.318,19.318,0,0,1-2.806.845,10.543,10.543,0,0,1-1.993.2,4.066,4.066,0,0,0-.871.07.581.581,0,0,0-.418.418,3.582,3.582,0,0,0-.1,1.11c0,.514.052,1.235.116,2.167v2.324a6.583,6.583,0,0,0,.108,1.243,1.119,1.119,0,0,0,.311.613,4.352,4.352,0,0,0,.622.418c.311.221.7.465,1.162.738s.912.511,1.339.717a6.878,6.878,0,0,0,1.06.68,2.952,2.952,0,0,1,.61.372.949.949,0,0,1,.43.427,1.716,1.716,0,0,0,.456.253,1.761,1.761,0,0,0,.581.076,6.43,6.43,0,0,0,.895-.076c.363-.052.837-.137,1.417-.253a8.653,8.653,0,0,0,2.051-.546.784.784,0,0,0,.476-.717,4.992,4.992,0,0,0-.029-.581c-.02-.177-.081-.264-.186-.264-.116-.1-.18-.555-.195-1.359s-.017-2.1-.017-3.887q0-3.776.183-5.536a5.382,5.382,0,0,1,.651-2.411,5.656,5.656,0,0,1,.973-.581q.813-.436,2.391-1.078c.349-.1.625-.192.825-.261a1.1,1.1,0,0,0,.456-.29,1.071,1.071,0,0,0,.224-.476q.07-.3.166-.871V5.094A7.858,7.858,0,0,0,721.543,4.246ZM705.93,13.3c-.136.349-.357.412-.671.192a1.313,1.313,0,0,1-.328-.991,8.439,8.439,0,0,1,.328-1.943,10.558,10.558,0,0,1,.235-1.162c.052-.157.186-.18.407-.078a.331.331,0,0,1,.36.322,14.5,14.5,0,0,1,.049,1.563,9.949,9.949,0,0,1-.381,2.1Zm14.233-8.54a.581.581,0,0,1-.447.145,2.254,2.254,0,0,0-.834.212c-.157.067-.439.16-.845.29s-.845.25-1.313.381-.927.253-1.38.369a10.9,10.9,0,0,1-1.069.232q-1.574.331-2.728.642a3.683,3.683,0,0,0-1.47.622h-.834c-.221,0-.343-.017-.369-.049a.912.912,0,0,1-.041-.378.63.63,0,0,1,.253-.514,4.764,4.764,0,0,1,1.206-.534,15.244,15.244,0,0,0,1.516-.389,4.145,4.145,0,0,1,1.206-.232c.412-.1.767-.2,1.057-.29a2.533,2.533,0,0,1,.613-.137c0-.1.261-.212.787-.328a16.53,16.53,0,0,0,1.743-.505,13.528,13.528,0,0,1,2.4-.468c.354,0,.534.157.534.468.1.215.107.372.014.471Z" transform="translate(-495.585 -0.806)" fill="#5a7daa"/>
      <path id="Path_10518" data-name="Path 10518" d="M849.442,68.162q-.253.017-1.281-.871a2.329,2.329,0,0,1-.871-.709,2.461,2.461,0,0,1-.116-.871,2.613,2.613,0,0,1,.1-.924,2.56,2.56,0,0,1,.717-.648c.29-.09.532-.177.738-.261a1.4,1.4,0,0,1,.468-.128c.09,0,.151.125.183.369a3.886,3.886,0,0,0,.2.8v2.176C849.66,67.793,849.619,68.148,849.442,68.162Z" transform="translate(-601.088 -45.232)" fill="#5a7daa"/>
      <path id="Path_10519" data-name="Path 10519" d="M820.367,7.085q0-1.8-.049-2.643A4.325,4.325,0,0,0,820.2,3.41a.526.526,0,0,0-.212-.261l-1.081-.514c-.523-.253-1.072-.517-1.641-.787s-1.092-.517-1.563-.729a3.581,3.581,0,0,0-.848-.32A11.7,11.7,0,0,0,813.4.186,3.637,3.637,0,0,0,812.681,0a2.417,2.417,0,0,0-.7.253q-.54.253-1.261.546a9.841,9.841,0,0,0-1.127.363,2.513,2.513,0,0,1-.837.212c-.195,0-.311.049-.349.145a4.425,4.425,0,0,0-.061,1.022,1.655,1.655,0,0,0,.157.834,3.113,3.113,0,0,0,.447.546,3.775,3.775,0,0,0,.514.436,6.5,6.5,0,0,1,.671.581,8.077,8.077,0,0,0,.97.778,1.594,1.594,0,0,1,.264.581,3.484,3.484,0,0,1,.125,1,5.362,5.362,0,0,1,.195.912c.041.311.11.468.215.468.349.195.674.389.97.581a2.112,2.112,0,0,1,.729.616.854.854,0,0,1,.186.564q-.041.221-.322.253a1.47,1.47,0,0,1-.787-.261,2.506,2.506,0,0,0-.776-.195.555.555,0,0,0-.116.311,2.955,2.955,0,0,0-.041.494,2.8,2.8,0,0,0,.041.485.433.433,0,0,0,.116.29q.134,0,.523-.017a3.166,3.166,0,0,0,.837-.174,3.716,3.716,0,0,0,.79-.3,1.025,1.025,0,0,0,.436-.465,2.692,2.692,0,0,0,.224-.871c.046-.378.1-.889.145-1.537a6.132,6.132,0,0,1,.331-1.874.505.505,0,0,1,.662-.29c.192,0,.29.151.311.456a18.142,18.142,0,0,1-.119,1.914,11.349,11.349,0,0,1-.134,1.856,5.1,5.1,0,0,1-.273,1.1,1.83,1.83,0,0,1-.543.581,2.827,2.827,0,0,1-.816.418,3.166,3.166,0,0,0-1.011.195,2.8,2.8,0,0,1-1.3.465,1.107,1.107,0,0,1-.857-.27,4.443,4.443,0,0,1-.311-.964,18.94,18.94,0,0,1-.27-2.594q-.157-2.033-.264-2.69c-.07-.433-.247-.651-.534-.651a1.85,1.85,0,0,1-.494-.311c-.29-.209-.581-.453-.944-.738s-.686-.581-1.008-.857a8.654,8.654,0,0,1-.7-.659,1.246,1.246,0,0,0-.662-.5,11.523,11.523,0,0,1-1.1-.494,5.769,5.769,0,0,0-1.926-.224,5.565,5.565,0,0,0-2.033.642,9.231,9.231,0,0,0-.961.427,1.356,1.356,0,0,0-.555.546,2.965,2.965,0,0,0-.29.95q-.1.607-.157,1.615c0,.7-.032,1.435-.1,2.2s-.1,1.351-.1,1.743a4.073,4.073,0,0,0-.128.871c-.032.421-.052.927-.058,1.516s0,1.24,0,1.952v5.252a8.966,8.966,0,0,0,.116,1.673,1.6,1.6,0,0,0,.349.8,4.069,4.069,0,0,0,.7.526,11.122,11.122,0,0,0,1.281.845,4.938,4.938,0,0,0,1.284.534,6.751,6.751,0,0,1,1.107.4,3.424,3.424,0,0,1,.683.378q.581.45.68.418c.064-.017.1-.224.1-.61a2.546,2.546,0,0,1,.41-.953c.18-.247.369-.325.561-.235.093,0,.174.1.244.29a1.083,1.083,0,0,1-.029.712,1.766,1.766,0,0,0,.116.709c.078.174.168.261.273.261a6.39,6.39,0,0,0,.807-.145c.444-.1.967-.244,1.563-.439.479-.192.964-.407,1.452-.639a3.545,3.545,0,0,1,.892-.351c.093,0,.154-.16.186-.485s.1-1.075.2-2.254V19.9a3.04,3.04,0,0,1,.125-.915,1.342,1.342,0,0,1,.349-.552,5.118,5.118,0,0,1,.7-.505,3.625,3.625,0,0,1,1.226-.505,6.21,6.21,0,0,1,.95-.078,1.417,1.417,0,0,1,.581.107.819.819,0,0,1,.381.456,4.525,4.525,0,0,1,.241,1.011q.1.662.174,1.769.139,1.049.186,1.612c.032.375.1.564.2.564s.291,0,.633-.02a3.175,3.175,0,0,0,.941-.174c.581-.195,1.022-.354,1.322-.485s.508-.5.63-1.1a17.035,17.035,0,0,0,.206-2.925q.017-2.033.017-5.946Q820.376,8.883,820.367,7.085Zm-6.5-2.147q0,.741-.892.311a6.715,6.715,0,0,1-2.062-1.9,1.482,1.482,0,0,1-.485-.36.616.616,0,0,0-.485-.224,1,1,0,0,1-.261-.418.668.668,0,0,1,.046-.581c.195-.195.505-.174.935.058a9.629,9.629,0,0,1,1.824,1.516c.29.29.561.581.828.816s.45.369.552.369Zm-9.638,2.547a1.208,1.208,0,0,1-.921-.078,6.478,6.478,0,0,1-1.263-.642,6.541,6.541,0,0,1-1.1-.871,1.278,1.278,0,0,1-.468-.758c0-.29.154-.427.459-.427a1.325,1.325,0,0,1,.918.421,5.281,5.281,0,0,1,.717.5,2.615,2.615,0,0,0,.871.476,3.016,3.016,0,0,1,.973.845c.154.264.1.444-.189.534Zm1.943,10.355c0,.871-.038,1.563-.078,2.033a2.985,2.985,0,0,1-.174.95.357.357,0,0,1-.328.235.291.291,0,0,1-.389,0,4.914,4.914,0,0,1-.174-1.827q-.017-1.691-.02-4.081V12.29q0-1.115.038-1.757a5.287,5.287,0,0,1,.116-.924.54.54,0,0,1,.235-.36.729.729,0,0,1,.447-.1c.1.026.177.2.224.534s.076.871.1,1.592.029,1.76.029,3.082q0,2.158-.02,3.477Zm1.964-10.289a1.336,1.336,0,0,1-.581.314,3.015,3.015,0,0,1-1.144.27c-.273,0-.41-.168-.41-.465a.923.923,0,0,1,.1-.459,1.275,1.275,0,0,1,.683-.32,1.792,1.792,0,0,1,1.049-.195.389.389,0,0,1,.331.389.4.4,0,0,1-.023.465Zm11.439-3.024a1.833,1.833,0,0,1-.552.331,6.3,6.3,0,0,1-.871.29,7.656,7.656,0,0,1-.871.186,1.4,1.4,0,0,1-.633-.02c-.29,0-.447-.116-.447-.349a.808.808,0,0,1,.447-.642A1.261,1.261,0,0,0,817.2,4.2a1.588,1.588,0,0,0,.418-.29,2.278,2.278,0,0,0,.6-.195,1.632,1.632,0,0,1,1.409.038C819.987,3.974,819.949,4.244,819.574,4.528Z" transform="translate(-566.573 0)" fill="#5a7daa"/>
    </g>
  </g>
</svg>
