<svg xmlns="http://www.w3.org/2000/svg" width="38.945" height="38.944" viewBox="0 0 38.945 38.944">
  <g id="noun-brand-3428238" transform="translate(-129.057 -59.063)">
    <path id="Path_12775" data-name="Path 12775" d="M489.83,64.217l5.154-5.154,1.995,1.994-5.18,5.18" transform="translate(-328.977 0)" fill="#219268"/>
    <path id="Path_12776" data-name="Path 12776" d="M162.436,131.224l.411-12.4-4.648,4.648a4.791,4.791,0,1,1-1.994-1.994l4.648-4.648,2,1.781.061-1.849-14.461.48-19.4,19.4,13.982,13.982ZM143.271,143.56l-7.151-7.151,1.995-1.994,7.151,7.151Z" transform="translate(0 -52.615)" fill="#219268"/>
    <path id="Path_12777" data-name="Path 12777" d="M389.9,196.56a1.97,1.97,0,1,0,2.787,0A1.972,1.972,0,0,0,389.9,196.56Z" transform="translate(-237.326 -124.854)" fill="#219268"/>
  </g>
</svg>
