<svg xmlns="http://www.w3.org/2000/svg" width="30.236" height="39.324" viewBox="0 0 30.236 39.324">
  <path id="noun-poster-4271007" d="M160.294,32.086a.92.92,0,0,0-.918.922V60.174a15.075,15.075,0,0,1,4.856-1.1,10.414,10.414,0,0,1,7.509,3.186,13.112,13.112,0,0,1,10.212-4.888,13.9,13.9,0,0,1,7.659,2.415V33.008a.92.92,0,0,0-.917-.922Zm19.345,4.676h0a.92.92,0,0,1,.759,1.457,2.824,2.824,0,0,0,.3,3.653h.006a2.833,2.833,0,0,0,3.653.3h0a.92.92,0,0,1,1.426.964,5.238,5.238,0,0,1-1.38,2.46h0V45.6a5.253,5.253,0,1,1-7.429-7.428,5.187,5.187,0,0,1,2.462-1.387.92.92,0,0,1,.208-.026ZM166.066,37.78l.031,0h6.266l.031,0a.92.92,0,1,1-.031,1.84H166.1a.92.92,0,1,1-.031-1.84Zm12.157,1.8a3.38,3.38,0,0,0,4.81,4.749,4.454,4.454,0,0,1-3.633-1.151s0-.005,0-.005,0,0-.006,0a4.448,4.448,0,0,1-1.171-3.593Zm-5.841,4.127h0a.92.92,0,1,1-.019,1.84H166.1a.921.921,0,0,1-.092-1.839.908.908,0,0,1,.092,0h6.266l.019,0Zm4.057,3.276h0a.92.92,0,1,1-.019,1.84H166.1a.921.921,0,0,1-.092-1.839.906.906,0,0,1,.092,0h10.341Zm-10.433,3.277h0a.906.906,0,0,1,.092,0h17.991a.92.92,0,1,1,0,1.84H166.1a.921.921,0,0,1-.092-1.84Zm.092,3.272h17.99a.922.922,0,1,1,0,1.844H166.1a.922.922,0,1,1,0-1.844Zm15.855,5.681a11.271,11.271,0,0,0-11.285,11.276v.922h18.027a.921.921,0,0,0,.917-.922V61.9c-2.43-1.4-5.159-2.692-7.659-2.692Zm-17.721,1.7a16.491,16.491,0,0,0-4.856,1.189v8.385a.92.92,0,0,0,.918.922h8.534v-.922a13.081,13.081,0,0,1,1.827-6.673,10.468,10.468,0,0,0-6.422-2.9Z" transform="translate(-159.375 -32.086)" fill="#854cdb"/>
</svg>
