<svg xmlns="http://www.w3.org/2000/svg" width="35.93" height="38.935" viewBox="0 0 35.93 38.935">
  <g id="noun-illustration-581801" transform="translate(-91.969 -1.756)">
    <path id="Path_12784" data-name="Path 12784" d="M115.856,9.833a3.67,3.67,0,0,1-3.67,3.67h-16.4a3.67,3.67,0,1,1,1.328-7.028,5,5,0,0,1,4.607-2.968l1.093.156h0A5.935,5.935,0,0,1,112.967,6.4a3.67,3.67,0,0,1,2.889,3.436ZM98.051,39.977l14.838-21.4,14.838,21.4a.39.39,0,0,1-.312.7H98.363a.39.39,0,0,1-.312-.7Z" fill="#c11b36"/>
  </g>
</svg>
