<svg xmlns="http://www.w3.org/2000/svg" width="29.084" height="42.588" viewBox="0 0 29.084 42.588">
  <g id="noun-flyer-3537759" transform="translate(-193.201 -50.402)">
    <path id="Path_12778" data-name="Path 12778" d="M209.976,86.757l-6.388,5.09v-5.09Zm11.27-28.046h-7.271V85.978c0,.052,0,.052-.052.1,0,.052,0,.052-.052.1,0,.052-.052.052-.052.1s-.052.052-.052.1a.051.051,0,0,1-.052.052c0,.052-.052.052-.1.1l-.052.052L205.51,92.99h15.737a1.042,1.042,0,0,0,1.039-1.039v-32.2a1.042,1.042,0,0,0-1.039-1.039ZM211.9,84.68H194.24a1.042,1.042,0,0,1-1.039-1.039v-32.2A1.042,1.042,0,0,1,194.24,50.4H211.9Zm-3.116-4.155a1.042,1.042,0,0,0-1.039-1.039H197.356a1.039,1.039,0,0,0,0,2.077h10.387A1.042,1.042,0,0,0,208.782,80.525Zm0-5.194a1.042,1.042,0,0,0-1.039-1.039H197.356a1.039,1.039,0,0,0,0,2.077h10.387A1.042,1.042,0,0,0,208.782,75.331Zm0-5.194a1.042,1.042,0,0,0-1.039-1.039H197.356a1.039,1.039,0,0,0,0,2.077h10.387A1.042,1.042,0,0,0,208.782,70.137Zm0-10.387a6.232,6.232,0,1,0-6.232,6.232A6.25,6.25,0,0,0,208.782,59.75ZM202.549,55.6A4.155,4.155,0,1,0,206.7,59.75,4.167,4.167,0,0,0,202.549,55.6Z" fill="#c11b36"/>
  </g>
</svg>
