<svg xmlns="http://www.w3.org/2000/svg" width="42.837" height="34.04" viewBox="0 0 42.837 34.04">
  <path id="noun-tshirt-1407528" d="M9.2,15.5V36.388H33.615V15.5l7.5,1.569,1.71-9.154-13.655-5.4A7.73,7.73,0,0,1,26.932,7.04a7.823,7.823,0,0,1-11.048,0,7.735,7.735,0,0,1-2.239-4.525L-.011,7.92,1.7,17.074,9.2,15.5ZM21.408,7.982a6.482,6.482,0,0,0,4.58-1.889,6.4,6.4,0,0,0,1.854-3.745,42.645,42.645,0,0,1-6.434.5,41.5,41.5,0,0,1-6.434-.494,6.419,6.419,0,0,0,1.854,3.741,6.483,6.483,0,0,0,4.58,1.889ZM16.976,15.5H12.594v2.839a1.547,1.547,0,0,0,1.541,1.543h1.3a1.551,1.551,0,0,0,1.543-1.543Z" transform="translate(0.011 -2.348)" fill="#219268" fill-rule="evenodd"/>
</svg>
