<svg xmlns="http://www.w3.org/2000/svg" width="31.048" height="31.048" viewBox="0 0 31.048 31.048">
  <path id="sketch" d="M22.865,15.519l7.917-7.927a.909.909,0,0,0,0-1.288L24.716.27a.91.91,0,0,0-1.285,0L15.525,8.178,8.9,1.557A.909.909,0,0,0,8.417,1.3L1.067.018A.91.91,0,0,0,.014,1.071L1.3,8.42a.909.909,0,0,0,.253.487l6.625,6.617L.267,23.435a.909.909,0,0,0,0,1.286L6.33,30.785a.909.909,0,0,0,.643.266h0a.91.91,0,0,0,.643-.267l7.912-7.921,7.932,7.922a.91.91,0,0,0,.643.266h0a.909.909,0,0,0,.643-.268l6.034-6.065a.91.91,0,0,0,0-1.285ZM18.676,7.6l1.93,1.93a.91.91,0,0,0,1.286-1.286l-1.93-1.93,1.746-1.746,1.93,1.93A.91.91,0,1,0,24.924,5.21l-1.93-1.93L24.076,2.2l4.776,4.752-7.273,7.281L16.811,9.464Zm-12.3-4.8L2.791,6.383,2.03,2.033Zm.594,26.061L2.2,24.079,3.277,23l1.93,1.93a.91.91,0,1,0,1.286-1.286l-1.93-1.93,1.746-1.746,1.93,1.93A.91.91,0,1,0,9.525,20.61L7.6,18.68l1.871-1.871,4.775,4.769Zm17.128,0L3.484,8.263,5.228,6.518l20.6,20.6Zm3.011-3.026-20.6-20.6L8.26,3.486,28.853,24.079Z" transform="translate(-0.001 -0.004)" fill="#a49caf" opacity="0.95"/>
</svg>
