<svg xmlns="http://www.w3.org/2000/svg" width="35.005" height="22.503" viewBox="0 0 35.005 22.503">
  <g id="video-camera" opacity="0.8">
    <g id="Group_12340" data-name="Group 12340" transform="translate(0 0)">
      <g id="Group_12339" data-name="Group 12339">
        <path id="Path_2153" data-name="Path 2153" d="M34.413,88.02a1.25,1.25,0,0,0-1.216-.055L25,92.062V89.084a3.751,3.751,0,0,0-3.751-3.751H3.751A3.751,3.751,0,0,0,0,89.084v15a3.751,3.751,0,0,0,3.751,3.751h17.5A3.751,3.751,0,0,0,25,104.086v-2.978l8.192,4.1a1.25,1.25,0,0,0,1.809-1.125v-15A1.25,1.25,0,0,0,34.413,88.02ZM22.5,104.086a1.25,1.25,0,0,1-1.25,1.25H3.751a1.25,1.25,0,0,1-1.25-1.25v-15a1.25,1.25,0,0,1,1.25-1.25h17.5a1.25,1.25,0,0,1,1.25,1.25v15Zm10-2.023L25,98.312V94.857l7.5-3.751Z" transform="translate(0 -85.333)" fill="#a49caf"/>
      </g>
    </g>
    <g id="Group_12342" data-name="Group 12342" transform="translate(7.501 6.251)">
      <g id="Group_12341" data-name="Group 12341">
        <path id="Path_2154" data-name="Path 2154" d="M107.4,170.667a5,5,0,1,0,5,5A5,5,0,0,0,107.4,170.667Zm0,7.5a2.5,2.5,0,1,1,2.5-2.5A2.5,2.5,0,0,1,107.4,178.168Z" transform="translate(-102.4 -170.667)" fill="#a49caf"/>
      </g>
    </g>
  </g>
</svg>
