<svg id="camera" xmlns="http://www.w3.org/2000/svg" width="29.141" height="24.474" viewBox="0 0 29.141 24.474">
  <path id="Path_2149" data-name="Path 2149" d="M26.01,44.415h-5.7l-.555-1.664A2.558,2.558,0,0,0,17.324,41H11.817a2.558,2.558,0,0,0-2.43,1.751l-.555,1.664H7.456V42.992A1.994,1.994,0,0,0,5.464,41H4.326a1.994,1.994,0,0,0-1.992,1.992v1.526A3.136,3.136,0,0,0,0,47.545v14.8a3.134,3.134,0,0,0,3.13,3.13H26.01a3.134,3.134,0,0,0,3.13-3.13v-14.8A3.134,3.134,0,0,0,26.01,44.415ZM4.041,42.992a.285.285,0,0,1,.285-.285H5.464a.285.285,0,0,1,.285.285v1.423H4.041ZM27.433,62.343a1.425,1.425,0,0,1-1.423,1.423H3.13a1.425,1.425,0,0,1-1.423-1.423v-14.8A1.425,1.425,0,0,1,3.13,46.122H9.448a.854.854,0,0,0,.81-.584l.749-2.247a.853.853,0,0,1,.81-.584h5.507a.853.853,0,0,1,.81.584l.749,2.247a.854.854,0,0,0,.81.584H26.01a1.424,1.424,0,0,1,1.423,1.423Z" transform="translate(0 -41)" fill="#a49caf"/>
  <ellipse id="Ellipse_221" data-name="Ellipse 221" cx="0.854" cy="0.854" rx="0.854" ry="0.854" transform="translate(23.961 6.83)" fill="#a49caf"/>
  <path id="Path_2150" data-name="Path 2150" d="M63.561,161H61.854a.854.854,0,1,0,0,1.707h1.707a.854.854,0,0,0,0-1.707Z" transform="translate(-57.528 -154.17)" fill="#a49caf"/>
  <g id="Group_12337" data-name="Group 12337" transform="translate(6.887 5.692)">
    <path id="Path_2151" data-name="Path 2151" d="M128.684,156.367a7.684,7.684,0,1,1,7.684-7.684A7.692,7.692,0,0,1,128.684,156.367Zm0-13.66a5.976,5.976,0,1,0,5.976,5.976A5.983,5.983,0,0,0,128.684,142.707Z" transform="translate(-121 -141)" fill="#a49caf"/>
  </g>
  <g id="Group_12338" data-name="Group 12338" transform="translate(10.302 9.106)">
    <path id="Path_2152" data-name="Path 2152" d="M185.269,209.537a4.269,4.269,0,1,1,4.269-4.269A4.273,4.273,0,0,1,185.269,209.537Zm0-6.83a2.561,2.561,0,1,0,2.561,2.561A2.564,2.564,0,0,0,185.269,202.707Z" transform="translate(-181 -201)" fill="#a49caf"/>
  </g>
</svg>
