<svg id="acceleration" xmlns="http://www.w3.org/2000/svg" width="32.344" height="25.9" viewBox="0 0 32.344 25.9">
  <path id="Path_2139" data-name="Path 2139" d="M32.344,89.8v-.013a1.394,1.394,0,0,0-.464-1.025l-3.191-2.849a.948.948,0,1,0-1.262,1.414l1.709,1.525H12.851a6.472,6.472,0,1,0,0,1.9H29.135l-1.709,1.526a.948.948,0,1,0,1.262,1.413l3.191-2.849a1.394,1.394,0,0,0,.464-1.025V89.8h0ZM6.46,94.378a4.577,4.577,0,1,1,4.466-5.525H7.885a.948.948,0,0,0,0,1.9h3.042a4.576,4.576,0,0,1-4.466,3.63Zm0,0" transform="translate(0 -78.064)" fill="#a49caf"/>
  <path id="Path_2140" data-name="Path 2140" d="M300.938,50.94a.948.948,0,0,0,.948.948h10.309a.948.948,0,0,0,0-1.9H301.886A.948.948,0,0,0,300.938,50.94Zm0,0" transform="translate(-281.927 -46.834)" fill="#a49caf"/>
  <path id="Path_2141" data-name="Path 2141" d="M193.311,1.9H201.3a.948.948,0,0,0,0-1.9h-7.992a.948.948,0,1,0,0,1.9Zm0,0" transform="translate(-180.211)" fill="#a49caf"/>
  <path id="Path_2142" data-name="Path 2142" d="M369.55,1.9h1.478a.948.948,0,1,0,0-1.9H369.55a.948.948,0,1,0,0,1.9Zm0,0" transform="translate(-345.317)" fill="#a49caf"/>
  <path id="Path_2143" data-name="Path 2143" d="M200.264,78.984a.948.948,0,1,0,0,1.9h1.478a.948.948,0,0,0,0-1.9Zm0,0" transform="translate(-186.725 -73.995)" fill="#a49caf"/>
  <path id="Path_2144" data-name="Path 2144" d="M221.777,230.856a.948.948,0,0,0,0-1.9H220.3a.948.948,0,0,0,0,1.9Zm0,0" transform="translate(-205.495 -214.497)" fill="#a49caf"/>
  <path id="Path_2145" data-name="Path 2145" d="M91.13,351H80.843a.948.948,0,1,0,0,1.9H91.13a.948.948,0,1,0,0-1.9Zm0,0" transform="translate(-74.848 -328.83)" fill="#a49caf"/>
  <path id="Path_2146" data-name="Path 2146" d="M234.076,301.012h-7.992a.948.948,0,1,0,0,1.9h7.992a.948.948,0,1,0,0-1.9Zm0,0" transform="translate(-210.914 -281.997)" fill="#a49caf"/>
  <path id="Path_2147" data-name="Path 2147" d="M154.441,302.907a.948.948,0,1,0,0-1.9h-1.478a.948.948,0,1,0,0,1.9Zm0,0" transform="translate(-142.413 -281.997)" fill="#a49caf"/>
  <path id="Path_2148" data-name="Path 2148" d="M323.726,380h-1.478a.948.948,0,1,0,0,1.9h1.478a.948.948,0,0,0,0-1.9Zm0,0" transform="translate(-301.003 -355.995)" fill="#a49caf"/>
</svg>
