<svg xmlns="http://www.w3.org/2000/svg" width="32.379" height="26.982" viewBox="0 0 32.379 26.982">
  <path id="iconmonstr-gamepad-4_1_" data-name="iconmonstr-gamepad-4 (1)" d="M8.095,2l1.581.274c-.48,3.029,1.067,3.4,3.639,3.877,1.982.368,4.224.839,4.224,4.431v.862h-1.6v-.862c0-2.1-.646-2.441-2.918-2.863C9.538,7.071,7.5,5.842,8.095,2ZM7.857,15.491a5.288,5.288,0,0,0-5.159,5.4,5.288,5.288,0,0,0,5.16,5.4,5.017,5.017,0,0,0,3.405-1.348,7.333,7.333,0,0,1,4.97-1.952,7.05,7.05,0,0,1,4.842,1.92,5.035,5.035,0,0,0,3.444,1.38,5.288,5.288,0,0,0,5.16-5.4,5.281,5.281,0,0,0-4.927-5.4H7.857Zm0-2.7,16.949.009a7.989,7.989,0,0,1,7.571,8.085,7.98,7.98,0,0,1-7.859,8.095,7.711,7.711,0,0,1-5.29-2.111,4.347,4.347,0,0,0-3-1.189,4.654,4.654,0,0,0-3.142,1.24,7.7,7.7,0,0,1-5.233,2.06A7.98,7.98,0,0,1,0,20.888a7.98,7.98,0,0,1,7.859-8.095Zm4.283,6.746h-2.7v-2.7h-2.7v2.7h-2.7v2.7h2.7v2.7h2.7v-2.7h2.7Zm5.4,1.349h-2.7v1.349h2.7Zm5.4-2.7a1.349,1.349,0,1,0,1.349-1.349A1.349,1.349,0,0,0,22.935,18.189Zm0,2.7a1.349,1.349,0,1,0-1.349,1.349A1.349,1.349,0,0,0,22.935,20.888Zm2.7,2.7a1.349,1.349,0,1,0-1.349,1.349A1.349,1.349,0,0,0,25.633,23.586Zm2.7-2.7a1.349,1.349,0,1,0-1.349,1.349A1.349,1.349,0,0,0,28.332,20.888Z" transform="translate(0 -2)" fill="#a49caf"/>
</svg>
