<svg xmlns="http://www.w3.org/2000/svg" width="24.693" height="24.694" viewBox="0 0 24.693 24.694">
  <g id="megaphone-outline" transform="translate(-2.25 -2.25)">
    <path id="Path_12785" data-name="Path 12785" d="M23.544,2.249h0a1.91,1.91,0,0,1,1.934,1.88v17.5a1.918,1.918,0,0,1-1.961,1.858,1.682,1.682,0,0,1-1.347-.632c-1.216-1.512-5.036-5.41-8.176-5.41H5.363A1.99,1.99,0,0,1,3.375,15.46V10.281A1.99,1.99,0,0,1,5.363,8.292H14c3.13,0,6.935-3.854,8.165-5.371l.009-.012A1.73,1.73,0,0,1,23.544,2.249Zm-.316,18.4V5.117A25.824,25.824,0,0,1,20.9,7.369c-2.487,2.106-4.809,3.174-6.9,3.174H5.625V15.2H14c2.093,0,4.416,1.072,6.9,3.187A25.869,25.869,0,0,1,23.229,20.645Z" transform="translate(-0.262)" fill="#a49caf"/>
    <path id="Path_12786" data-name="Path 12786" d="M3.843,18.006a2.827,2.827,0,0,1-1.593-2.78,2.827,2.827,0,0,1,1.593-2.78,1.125,1.125,0,0,1,.863,2.077c-.039.031-.206.193-.206.7a1.016,1.016,0,0,0,.167.665.239.239,0,0,0,.047.044L4.7,15.927l-.022-.01L4.633,15.9Z" transform="translate(0 -2.356)" fill="#a49caf"/>
    <path id="Path_12787" data-name="Path 12787" d="M31.5,17.7a1.125,1.125,0,0,1-.331-2.2.184.184,0,0,0,.061-.042.291.291,0,0,0,0-.139.184.184,0,0,0-.061-.042,1.125,1.125,0,0,1,.625-2.161,2.372,2.372,0,0,1,0,4.546A1.127,1.127,0,0,1,31.5,17.7Z" transform="translate(-6.545 -2.52)" fill="#a49caf"/>
    <path id="Path_12788" data-name="Path 12788" d="M18,19.281a1.125,1.125,0,0,1-1.125-1.125V11.25a1.125,1.125,0,0,1,2.25,0v6.906A1.125,1.125,0,0,1,18,19.281Z" transform="translate(-3.403 -1.833)" fill="#a49caf"/>
    <path id="Path_12789" data-name="Path 12789" d="M7.875,19.281A1.125,1.125,0,0,1,6.75,18.156V11.25a1.125,1.125,0,0,1,2.25,0v6.906A1.125,1.125,0,0,1,7.875,19.281Z" transform="translate(-1.047 -1.833)" fill="#a49caf"/>
    <path id="Path_12790" data-name="Path 12790" d="M10.557,30.871A1.559,1.559,0,0,1,9,29.314V20.25a1.125,1.125,0,0,1,2.25,0v8.371h1.8c-.09-.244-.2-.5-.308-.774A12.254,12.254,0,0,1,11.59,22.84a1.125,1.125,0,0,1,1.125-1.125h.6v-.34h-.6a1.125,1.125,0,0,1,0-2.25h.863a1.99,1.99,0,0,1,1.988,1.988v.863a1.991,1.991,0,0,1-1.657,1.961,11.591,11.591,0,0,0,.913,3.053c.184.448.358.87.493,1.3a1.988,1.988,0,0,1-1.9,2.579h-2.86Z" transform="translate(-1.571 -3.927)" fill="#a49caf"/>
  </g>
</svg>
