<?xml version="1.0" encoding="iso-8859-1"?>
<!-- Uploaded to: SVG Repo, www.svgrepo.com, Generator: SVG Repo Mixer Tools -->
<svg fill="#000000" version="1.1" id="Capa_1" xmlns="http://www.w3.org/2000/svg" xmlns:xlink="http://www.w3.org/1999/xlink" 
	 viewBox="0 0 64 64" xml:space="preserve">
<g>
	<path d="M13,32h11c0.552,0,1-0.448,1-1v-9c0-0.552-0.448-1-1-1h-2c-5.514,0-10,4.486-10,10C12,31.552,12.448,32,13,32z M22,23h1v7
		h-8.938C14.556,26.059,17.928,23,22,23z"/>
	<rect x="20" y="34" width="4" height="2"/>
	<path d="M59,2H28c-0.009,0-0.016,0.005-0.025,0.005c-0.117,0.003-0.231,0.026-0.341,0.069c-0.025,0.01-0.047,0.024-0.071,0.036
		c-0.046,0.023-0.094,0.041-0.137,0.071l-10,7C17.159,9.368,17,9.674,17,10v4c0,0.552,0.448,1,1,1h9v2h-5c-7.72,0-14,6.28-14,14
		v4.055C3.506,35.554,0,39.375,0,44v1v6c0,2.757,2.243,5,5,5h5.08c0.488,3.387,3.401,6,6.92,6s6.432-2.613,6.92-6H28h16.08
		c0.488,3.387,3.401,6,6.92,6c3.519,0,6.432-2.613,6.92-6H59c2.757,0,5-2.243,5-5v-8V7C64,4.243,61.757,2,59,2z M29,33h33v2H29V33z
		 M29,37h33v5H29V37z M62,7v24H29V18v-4V4h30C60.654,4,62,5.346,62,7z M19,13v-2.479l8-5.6V13H19z M2,46h2c1.103,0,2,0.897,2,2
		s-0.897,2-2,2H2V46z M2.184,52H4c2.206,0,4-1.794,4-4s-1.794-4-4-4H2c0-3.86,3.14-7,7-7c0.552,0,1-0.448,1-1v-5
		c0-6.617,5.383-12,12-12h5v24v11h-3.08c-0.488-3.387-3.401-6-6.92-6c-3.52,0-6.432,2.613-6.92,6H5C3.698,54,2.598,53.161,2.184,52z
		 M17,60c-2.757,0-5-2.243-5-5s2.243-5,5-5s5,2.243,5,5S19.757,60,17,60z M51,60c-2.757,0-5-2.243-5-5s2.243-5,5-5s5,2.243,5,5
		S53.757,60,51,60z M62,51c0,1.654-1.346,3-3,3h-1.08c-0.488-3.387-3.401-6-6.92-6c-3.52,0-6.432,2.613-6.92,6H29V44h33V51z"/>
	<path d="M55,25h4v-2h-3v-4h3v-2h-3v-4h3v-2h-4c-0.552,0-1,0.448-1,1v12C54,24.552,54.448,25,55,25z"/>
	<path d="M48,25h4v-2h-3v-4h3v-2h-3v-4h3v-2h-4c-0.552,0-1,0.448-1,1v12C47,24.552,47.448,25,48,25z"/>
	<path d="M41,21.303l2.168,3.252C43.353,24.833,43.665,25,44,25h1v-2h-0.465l-2.722-4.083C43.63,18.54,45,16.927,45,15
		c0-2.206-1.794-4-4-4h-1c-0.552,0-1,0.448-1,1v13h2V21.303z M41,13c1.103,0,2,0.897,2,2s-0.897,2-2,2V13z"/>
	<path d="M33,19h4v-2h-4v-4h4v-2h-5c-0.552,0-1,0.448-1,1v13h2V19z"/>
</g>
</svg>