<?xml version="1.0" encoding="utf-8"?><!-- Uploaded to: SVG Repo, www.svgrepo.com, Generator: SVG Repo Mixer Tools -->
<svg width="800px" height="800px" viewBox="0 0 24 24" fill="none" xmlns="http://www.w3.org/2000/svg">
<path fill-rule="evenodd" clip-rule="evenodd" d="M7.25342 6.19277L9.75189 8.69124C10.3924 8.25536 11.1668 8.00005 12 8.00005C12.8332 8.00005 13.6076 8.25536 14.2481 8.69123L16.7466 6.19277C15.4533 5.13424 13.8013 4.5 12 4.5C10.1987 4.5 8.5467 5.13424 7.25342 6.19277ZM17.8072 7.25343L15.3088 9.75188C15.7447 10.3924 16 11.1668 16 12C16 12.8332 15.7447 13.6076 15.3088 14.2482L17.8072 16.7466C18.8658 15.4533 19.5 13.8013 19.5 12C19.5 10.1987 18.8658 8.54671 17.8072 7.25343ZM16.7466 17.8072L14.2482 15.3088C13.6076 15.7447 12.8332 16 12 16C11.1668 16 10.3924 15.7447 9.75184 15.3088L7.25343 17.8072C8.54671 18.8658 10.1987 19.5 12 19.5C13.8013 19.5 15.4533 18.8658 16.7466 17.8072ZM6.19277 16.7466L8.69119 14.2482C8.25531 13.6076 8 12.8332 8 12C8 11.1668 8.25532 10.3924 8.69122 9.75189L6.19276 7.25343C5.13424 8.54671 4.5 10.1987 4.5 12C4.5 13.8013 5.13424 15.4533 6.19277 16.7466ZM5.63604 5.63604C7.26389 4.00818 9.51492 3 12 3C14.4851 3 16.7361 4.00818 18.364 5.63604C19.9918 7.2639 21 9.51493 21 12C21 14.4851 19.9918 16.7361 18.364 18.364C16.7361 19.9918 14.4851 21 12 21C9.51493 21 7.26391 19.9918 5.63605 18.364C4.00818 16.7361 3 14.4851 3 12C3 9.51493 4.00818 7.2639 5.63604 5.63604ZM12 9.50005C11.3094 9.50005 10.6855 9.77904 10.2323 10.2323C9.77901 10.6855 9.5 11.3095 9.5 12C9.5 12.6906 9.779 13.3146 10.2322 13.7678C10.6855 14.221 11.3094 14.5 12 14.5C12.6906 14.5 13.3145 14.221 13.7678 13.7678C14.221 13.3146 14.5 12.6906 14.5 12C14.5 11.3095 14.221 10.6855 13.7678 10.2323C13.3145 9.77904 12.6906 9.50005 12 9.50005Z" fill="#1F2328"/>
</svg>