<svg xmlns="http://www.w3.org/2000/svg" width="195.869" height="44.409" viewBox="0 0 195.869 44.409">
  <g id="adshqip_logo_-_light" data-name="adshqip logo - light" transform="translate(0 0)">
    <path id="Path_12766" data-name="Path 12766" d="M15.214-7.334H5.3L3.2-2.485H.31L9.043-22.1h2.4L20.2-2.485H17.307Zm-.964-2.259-3.994-9.339L6.26-9.593ZM22.734-22.1h6.859q4.766,0,7.383,2.562a9.64,9.64,0,0,1,2.617,7.218q0,4.683-2.617,7.259T29.594-2.485H22.734ZM29.428-4.854q7.245,0,7.245-7.466,0-7.41-7.245-7.41H25.572V-4.854ZM49.9-2.265a13.6,13.6,0,0,1-4.174-.606,9.073,9.073,0,0,1-3.264-1.818l1.019-2.094A9.7,9.7,0,0,0,46.453-5.1a10.766,10.766,0,0,0,3.471.523,6.02,6.02,0,0,0,3.416-.826,2.669,2.669,0,0,0,1.212-2.342,2.079,2.079,0,0,0-1.129-1.915,13.655,13.655,0,0,0-3.581-1.2A20.358,20.358,0,0,1,46.012-12a5.889,5.889,0,0,1-2.342-1.736,4.394,4.394,0,0,1-.854-2.8,5.156,5.156,0,0,1,.909-3.017A5.949,5.949,0,0,1,46.3-21.59a9.5,9.5,0,0,1,3.843-.73,11.6,11.6,0,0,1,3.871.634A8.262,8.262,0,0,1,57.032-19.9L56.012-17.8a9.61,9.61,0,0,0-2.782-1.667,8.637,8.637,0,0,0-3.058-.537,5.505,5.505,0,0,0-3.333.9,2.87,2.87,0,0,0-1.212,2.438,2.249,2.249,0,0,0,1.061,2.011,11.323,11.323,0,0,0,3.4,1.24,26.821,26.821,0,0,1,3.967,1.157,6.178,6.178,0,0,1,2.424,1.653,3.969,3.969,0,0,1,.909,2.7,4.97,4.97,0,0,1-.909,2.975,5.871,5.871,0,0,1-2.6,1.97A10.347,10.347,0,0,1,49.9-2.265ZM77.555-22.1V-2.485H74.718v-8.788H63.726v8.788h-2.81V-22.1h2.81v8.485H74.718V-22.1ZM94.277-2.926a14.768,14.768,0,0,0,3.554,4.05L95.875,2.776A14.007,14.007,0,0,1,93.505.545a20.108,20.108,0,0,1-2.039-2.837q-.3.028-.909.028a9.251,9.251,0,0,1-4.835-1.226,8.162,8.162,0,0,1-3.168-3.485,11.876,11.876,0,0,1-1.116-5.317,12.07,12.07,0,0,1,1.1-5.344,7.964,7.964,0,0,1,3.168-3.471,9.408,9.408,0,0,1,4.848-1.212,9.389,9.389,0,0,1,4.862,1.212,7.989,7.989,0,0,1,3.154,3.471,12,12,0,0,1,1.1,5.317,11.62,11.62,0,0,1-1.419,5.937A7.861,7.861,0,0,1,94.277-2.926ZM84.359-12.32A8.856,8.856,0,0,0,86-6.59a5.556,5.556,0,0,0,4.559,2.011A5.587,5.587,0,0,0,95.145-6.59a8.856,8.856,0,0,0,1.639-5.73,8.749,8.749,0,0,0-1.639-5.689,5.6,5.6,0,0,0-4.587-2,5.564,5.564,0,0,0-4.573,2A8.8,8.8,0,0,0,84.359-12.32Zm19.229-9.78h2.837V-2.485h-2.837Zm7.41,0h8.154a7.077,7.077,0,0,1,4.807,1.5,5.148,5.148,0,0,1,1.722,4.091,5.11,5.11,0,0,1-1.749,4.091,7.1,7.1,0,0,1-4.78,1.5h-5.317v8.43H111Zm7.824,8.926a4.731,4.731,0,0,0,3.072-.854,3.033,3.033,0,0,0,1.033-2.479,3,3,0,0,0-1.033-2.452,4.731,4.731,0,0,0-3.072-.854h-4.986v6.639Z" transform="translate(70.187 33.731)"/>
    <g id="logo_1_" data-name="logo (1)" transform="translate(0 -0.001)">
      <path id="Path_12270" data-name="Path 12270" d="M136.394,29.313,121.177,2.956a5.908,5.908,0,0,0-10.228,0L108.28,7.584a5.914,5.914,0,0,1,1.378,1.623L124.871,35.56a5.882,5.882,0,0,1,.788,2.609h5.62a5.906,5.906,0,0,0,5.115-8.855Z" transform="translate(-83.419 -0.006)" fill="#82d1ff"/>
      <path id="Path_12271" data-name="Path 12271" d="M12.353,50.269,24.9,28.54a5.912,5.912,0,0,0-8.855,1.627L.83,56.512a5.908,5.908,0,0,0,5.115,8.859H36.377a5.915,5.915,0,0,0,5.9-6.25H17.474a5.906,5.906,0,0,1-5.12-8.856Z" transform="translate(-0.041 -20.962)" fill="#ff6c4f"/>
      <path id="Path_12272" data-name="Path 12272" d="M64.919,34.613a5.915,5.915,0,0,0-1.378-1.623L51,54.721a5.906,5.906,0,0,0,5.115,8.856H80.92a5.882,5.882,0,0,0-.788-2.61Z" transform="translate(-38.685 -25.413)" fill="#8292ff"/>
    </g>
  </g>
</svg>
