<svg xmlns="http://www.w3.org/2000/svg" width="166.162" height="30.611" viewBox="0 0 166.162 30.611">
  <g id="kamnevoj_logo_-_light" data-name="kamnevoj logo - light" transform="translate(-4.57 0.002)">
    <g id="Group_6148" data-name="Group 6148" transform="translate(41.433 2.877)">
      <path id="Path_12331" data-name="Path 12331" d="M56.31,3.052l-9.356,9.733,10.2,10.356v.2H53.076l-9.111-9.3v9.3H40.7V2.94h3.265v8.815L52.28,2.94h4.081Z" transform="translate(-40.7 -2.818)" fill="#dd2f38"/>
      <path id="Path_12332" data-name="Path 12332" d="M68.247,8.857h2.908V23.232H68.3L68.155,20.9A5.683,5.683,0,0,1,63.2,23.61c-4.193,0-7.377-2.683-7.377-7.581A7.05,7.05,0,0,1,63.258,8.54a5.54,5.54,0,0,1,4.9,2.592ZM58.83,16a4.53,4.53,0,0,0,4.663,4.785c6.213,0,6.213-9.54,0-9.54a4.52,4.52,0,0,0-4.663,4.785Z" transform="translate(-40.394 -2.704)" fill="#dd2f38"/>
      <path id="Path_12333" data-name="Path 12333" d="M83.536,23.231v-7.9c0-2.132-1.224-3.908-3.347-3.908s-3.469,1.775-3.469,3.908v7.9H73.66V8.825h2.806l.2,1.928A4.346,4.346,0,0,1,80.741,8.59a4.53,4.53,0,0,1,4.489,2.887,5.254,5.254,0,0,1,4.928-2.857c3.969,0,6.122,2.51,6.122,6.652v7.958H93.219V15.273c0-2.132-1.02-3.826-3.173-3.826a3.591,3.591,0,0,0-3.5,3.887v7.9Z" transform="translate(-40.032 -2.703)" fill="#dd2f38"/>
      <path id="Path_12334" data-name="Path 12334" d="M112.95,17.459V2.93h3.265V23.336h-2.479l-11.58-14.4V23.346h-3.3V2.94h2.51Z" transform="translate(-39.521 -2.818)"/>
      <path id="Path_12335" data-name="Path 12335" d="M121.162,17.174c.265,2.183,2.041,3.612,4.693,3.612a6.04,6.04,0,0,0,4.173-1.571l1.949,1.888a8.56,8.56,0,0,1-6.183,2.449c-4.724,0-7.754-3-7.754-7.611a7.193,7.193,0,0,1,7.55-7.489c4.642,0,7.795,2.826,7.234,8.693Zm8.774-2.54c-.173-2.275-1.837-3.469-4.255-3.469a4.265,4.265,0,0,0-4.459,3.469Z" transform="translate(-39.132 -2.706)"/>
      <path id="Path_12336" data-name="Path 12336" d="M147.959,8.821l-6.122,14.468h-3.3L132.42,8.821h3.316l1.928,4.642,2.541,6.673,2.275-6.122,2.153-5.224Z" transform="translate(-38.84 -2.699)"/>
      <path id="Path_12337" data-name="Path 12337" d="M162.436,16.063a7.438,7.438,0,1,1-14.865,0,7.438,7.438,0,1,1,14.865,0Zm-11.866,0a4.428,4.428,0,1,0,8.836,0,4.51,4.51,0,0,0-4.428-4.724,4.418,4.418,0,0,0-4.408,4.724Z" transform="translate(-38.533 -2.708)"/>
      <g id="Group_6147" data-name="Group 6147" transform="translate(121.311)">
        <path id="Path_12338" data-name="Path 12338" d="M167.211,8.79V24.921c0,3.612-1.316,5.51-4.55,5.51a5.448,5.448,0,0,1-3.061-.908l1.071-2.357a4,4,0,0,0,1.837.439c1.439,0,1.663-1.02,1.663-2.683V8.79Z" transform="translate(-159.6 -2.699)"/>
        <path id="Path_12339" data-name="Path 12339" d="M163.77,4.687a1.867,1.867,0,1,0,1.867-1.867A1.867,1.867,0,0,0,163.77,4.687Z" transform="translate(-159.515 -2.82)" fill="#dd2f38"/>
      </g>
    </g>
    <path id="Path_12340" data-name="Path 12340" d="M28.414,6.9,20.139.877a4.581,4.581,0,0,0-5.4,0L6.468,6.9a4.571,4.571,0,0,0-1.9,3.714v11.58a4.6,4.6,0,0,0,4.591,4.591H25.72A4.591,4.591,0,0,0,30.3,22.191V10.611A4.591,4.591,0,0,0,28.414,6.9ZM14.865,24.374v-7.03A1.449,1.449,0,0,1,16.313,15.9h2.255a1.459,1.459,0,0,1,1.449,1.449v6.989ZM27.9,22.191a2.183,2.183,0,0,1-2.183,2.183H22.415v-7.03A3.846,3.846,0,0,0,18.568,13.5H16.313a3.857,3.857,0,0,0-3.857,3.846v6.989h-3.3A2.183,2.183,0,0,1,6.978,22.15V10.611a2.2,2.2,0,0,1,.9-1.775L16.15,2.826a2.173,2.173,0,0,1,2.571,0l8.285,6.009a2.2,2.2,0,0,1,.9,1.775Z" transform="translate(0 0)"/>
  </g>
</svg>
