<svg xmlns="http://www.w3.org/2000/svg" width="187.469" height="36.15" viewBox="0 0 187.469 36.15">
  <g id="svgexport-1_1_" data-name="svgexport-1 (1)" transform="translate(-10.996 -2.504)">
    <g id="Group_7" data-name="Group 7" transform="translate(51.927 11.182)">
      <path id="Battle.Games" d="M8.643-55.523v-17.5H14.2a6.561,6.561,0,0,1,4.021,1.111A3.452,3.452,0,0,1,19.7-69.02a4.13,4.13,0,0,1-.842,2.587,4.543,4.543,0,0,1-2.331,1.562v.049a4.567,4.567,0,0,1,2.886,1.336,4.07,4.07,0,0,1,1.08,2.935,4.408,4.408,0,0,1-1.769,3.637,7.006,7.006,0,0,1-4.466,1.391Zm2.892-15.169v4.979h1.879a3.609,3.609,0,0,0,2.374-.714,2.478,2.478,0,0,0,.86-2.02q0-2.245-3-2.245Zm0,7.31v5.54h2.477a3.767,3.767,0,0,0,2.508-.751,2.568,2.568,0,0,0,.885-2.068q0-2.721-3.771-2.721Zm21.478,7.859H30.267v-1.953h-.049a4.134,4.134,0,0,1-3.8,2.245,4,4,0,0,1-2.886-1,3.5,3.5,0,0,1-1.043-2.648q0-3.539,4.076-4.125l3.71-.525q0-2.673-2.538-2.673a6.029,6.029,0,0,0-4.027,1.538v-2.477a8.782,8.782,0,0,1,4.564-1.172q4.735,0,4.735,4.662Zm-2.734-6.138-2.624.366a4.159,4.159,0,0,0-1.837.592,1.729,1.729,0,0,0-.616,1.519,1.663,1.663,0,0,0,.567,1.3,2.2,2.2,0,0,0,1.519.506,2.8,2.8,0,0,0,2.142-.909,3.223,3.223,0,0,0,.848-2.288Zm12.777,6a4.907,4.907,0,0,1-2.184.415q-3.637,0-3.637-3.49V-65.8H35.148v-2.221h2.087v-2.892l2.831-.805v3.7h2.99V-65.8h-2.99v6.248a2.462,2.462,0,0,0,.4,1.586,1.672,1.672,0,0,0,1.342.476,1.946,1.946,0,0,0,1.245-.415Zm9.031,0a4.906,4.906,0,0,1-2.184.415q-3.637,0-3.637-3.49V-65.8H44.179v-2.221h2.087v-2.892l2.831-.805v3.7h2.99V-65.8H49.1v6.248a2.462,2.462,0,0,0,.4,1.586,1.672,1.672,0,0,0,1.342.476,1.946,1.946,0,0,0,1.245-.415Zm5.284.134H54.527v-18.5h2.843ZM71.636-61H63.118a3.6,3.6,0,0,0,1.068,2.673,3.973,3.973,0,0,0,2.8.94,6.176,6.176,0,0,0,3.673-1.2V-56.3a8.392,8.392,0,0,1-4.515,1.074,5.59,5.59,0,0,1-4.326-1.7,6.809,6.809,0,0,1-1.568-4.79,6.659,6.659,0,0,1,1.727-4.753,5.648,5.648,0,0,1,4.289-1.837,4.925,4.925,0,0,1,3.966,1.647,6.84,6.84,0,0,1,1.4,4.576ZM68.9-63a3.648,3.648,0,0,0-.72-2.374,2.406,2.406,0,0,0-1.953-.848,2.748,2.748,0,0,0-2.068.891A4.07,4.07,0,0,0,63.118-63Zm26.274,6.285a12.521,12.521,0,0,1-6.089,1.489A8.476,8.476,0,0,1,82.8-57.646a8.668,8.668,0,0,1-2.4-6.395,8.986,8.986,0,0,1,2.63-6.669,9.1,9.1,0,0,1,6.681-2.605,12.443,12.443,0,0,1,4.906.854v2.99a8.444,8.444,0,0,0-4.8-1.342,6.106,6.106,0,0,0-4.582,1.843A6.565,6.565,0,0,0,83.449-64.2a6.876,6.876,0,0,0,1.538,4.741,5.306,5.306,0,0,0,4.174,1.727,6.606,6.606,0,0,0,3.124-.7v-4.161H88.6V-65.03h6.578Zm13.045,1.2h-2.746v-1.953h-.049a4.134,4.134,0,0,1-3.8,2.245,4,4,0,0,1-2.886-1A3.5,3.5,0,0,1,97.7-58.879q0-3.539,4.076-4.125l3.71-.525q0-2.673-2.538-2.673a6.029,6.029,0,0,0-4.027,1.538v-2.477a8.782,8.782,0,0,1,4.564-1.172q4.735,0,4.735,4.662Zm-2.734-6.138-2.624.366a4.159,4.159,0,0,0-1.837.592,1.729,1.729,0,0,0-.616,1.519,1.663,1.663,0,0,0,.567,1.3,2.2,2.2,0,0,0,1.519.506,2.8,2.8,0,0,0,2.142-.909,3.223,3.223,0,0,0,.848-2.288Zm24.871,6.138h-2.831v-6.809a5.519,5.519,0,0,0-.555-2.843,2.042,2.042,0,0,0-1.873-.879,2.257,2.257,0,0,0-1.885,1.111,4.531,4.531,0,0,0-.775,2.66v6.761H119.6v-7.041q0-3.49-2.465-3.49a2.224,2.224,0,0,0-1.885,1.049,4.628,4.628,0,0,0-.738,2.721v6.761h-2.831v-12.5h2.831v1.977h.049a4.329,4.329,0,0,1,3.942-2.27,3.716,3.716,0,0,1,2.264.714,3.555,3.555,0,0,1,1.324,1.873,4.459,4.459,0,0,1,4.149-2.587q4.125,0,4.125,5.089ZM144.393-61h-8.518a3.6,3.6,0,0,0,1.068,2.673,3.973,3.973,0,0,0,2.8.94,6.176,6.176,0,0,0,3.673-1.2V-56.3A8.392,8.392,0,0,1,138.9-55.23a5.59,5.59,0,0,1-4.326-1.7,6.809,6.809,0,0,1-1.568-4.79,6.659,6.659,0,0,1,1.727-4.753,5.648,5.648,0,0,1,4.289-1.837,4.925,4.925,0,0,1,3.966,1.647,6.84,6.84,0,0,1,1.4,4.576Zm-2.734-2a3.648,3.648,0,0,0-.72-2.374,2.406,2.406,0,0,0-1.953-.848,2.748,2.748,0,0,0-2.068.891A4.07,4.07,0,0,0,135.875-63Zm4.649,7.09v-2.624a5.648,5.648,0,0,0,3.5,1.208q2.563,0,2.563-1.513a1.192,1.192,0,0,0-.22-.726,2.1,2.1,0,0,0-.592-.531,4.654,4.654,0,0,0-.879-.415q-.506-.183-1.129-.415a11.95,11.95,0,0,1-1.385-.647,4.185,4.185,0,0,1-1.025-.775,2.925,2.925,0,0,1-.616-.982,3.617,3.617,0,0,1-.207-1.281,2.962,2.962,0,0,1,.427-1.593,3.712,3.712,0,0,1,1.147-1.159,5.5,5.5,0,0,1,1.635-.708,7.486,7.486,0,0,1,1.892-.238,8.6,8.6,0,0,1,3.1.525v2.477a5.225,5.225,0,0,0-3.026-.9,3.952,3.952,0,0,0-.97.11,2.5,2.5,0,0,0-.738.305,1.5,1.5,0,0,0-.476.47,1.121,1.121,0,0,0-.171.6,1.291,1.291,0,0,0,.171.683,1.552,1.552,0,0,0,.506.494,4.375,4.375,0,0,0,.805.391q.47.177,1.08.384a15.778,15.778,0,0,1,1.446.671,4.887,4.887,0,0,1,1.092.775,3.038,3.038,0,0,1,.7,1,3.4,3.4,0,0,1,.244,1.348,3.082,3.082,0,0,1-.439,1.66,3.662,3.662,0,0,1-1.172,1.172,5.484,5.484,0,0,1-1.69.689,8.781,8.781,0,0,1-2.02.226A8.509,8.509,0,0,1,146.309-55.914Z" transform="translate(-8.643 74.023)"/>
    </g>
    <path id="Subtraction_2" data-name="Subtraction 2" d="M-423.182-218.331a4.835,4.835,0,0,1-2.427-.654l-1.584-.921c.132-8.317.2-13.281.2-14.753.012-.088.024-.162.036-.23v-.654a.829.829,0,0,1,.828-.828h4.982a1.658,1.658,0,0,1,1.656,1.656,1.657,1.657,0,0,1-1.656,1.655h-3.6l.285.457a5.214,5.214,0,0,0,4.693,2.7,4.089,4.089,0,0,0,.855-.084,4.456,4.456,0,0,0,3.648-4.307,5.248,5.248,0,0,0-2.115-4.383c.012,0,1.1-.256,1.245-2.381a3.854,3.854,0,0,0-.972-2.926,4.707,4.707,0,0,0-3.187-1.211h-9.779v23.609l-6.846-3.979a4.9,4.9,0,0,1-2.427-4.238l.015-13.195a4.9,4.9,0,0,1,2.421-4.222l11.342-6.611a4.833,4.833,0,0,1,2.431-.654,4.833,4.833,0,0,1,2.425.653l11.307,6.572a4.9,4.9,0,0,1,2.428,4.238l-.015,13.195a4.9,4.9,0,0,1-2.421,4.222l-11.342,6.611a4.834,4.834,0,0,1-2.43.658Zm2.036-20.714h-4.982a.829.829,0,0,1-.828-.828v-1.656a.829.829,0,0,1,.828-.828h4.982a1.658,1.658,0,0,1,1.656,1.656,1.658,1.658,0,0,1-1.656,1.656Z" transform="translate(450.34 256.984)"/>
  </g>
</svg>
