<svg xmlns="http://www.w3.org/2000/svg" width="176.59" height="25.216" viewBox="0 0 176.59 25.216">
  <g id="Group_13265" data-name="Group 13265" transform="translate(-1217 -7845)">
    <path id="Path_12770" data-name="Path 12770" d="M-14.795,8.451h4.782L-16.723-10.1h-5.231L-28.665,8.451h4.729l1.11-3.276H-15.9Zm-2.272-6.763h-4.571l2.272-6.79Zm8.19-.634c0,4.65,2.88,7.609,6.5,7.609A5.1,5.1,0,0,0,2.167,6.337V8.451H6.685V-11.1H2.167v6.843A5.412,5.412,0,0,0-2.377-6.5C-6-6.5-8.877-3.6-8.877,1.053ZM2.167,1.08c0,2.351-1.506,3.646-3.223,3.646C-2.747,4.725-4.28,3.4-4.28,1.053s1.532-3.62,3.223-3.62C.661-2.566,2.167-1.272,2.167,1.08ZM18.706-10.175A9.083,9.083,0,0,0,9.459-.77a9.061,9.061,0,0,0,9.247,9.379A8.931,8.931,0,0,0,27.741.366V-1.483H17.834V.472h7.345a6.209,6.209,0,0,1-6.473,5.971c-3.884,0-6.79-2.8-6.79-7.213,0-4.439,2.906-7.239,6.79-7.239a5.875,5.875,0,0,1,5.6,3.382h2.88A8.707,8.707,0,0,0,18.706-10.175ZM30.013,1.159c0,4.491,2.985,7.53,6.843,7.53a6.047,6.047,0,0,0,5.416-2.933V8.451H44.7V-6.027H42.272v2.642a6.008,6.008,0,0,0-5.39-2.88C33-6.265,30.013-3.359,30.013,1.159Zm12.259.026c0,3.408-2.272,5.39-4.914,5.39S32.47,4.567,32.47,1.159s2.246-5.337,4.888-5.337S42.272-2.17,42.272,1.185Zm7.028,3.3c0,2.906,1.453,3.963,4.016,3.963h2.166V6.416h-1.77c-1.48,0-2.008-.5-2.008-1.929V-4.046h3.778V-6.027H51.7V-9.673H49.3v3.646H47.424v1.981H49.3ZM64.544-4.231A4.248,4.248,0,0,1,69.115.155H59.973A4.484,4.484,0,0,1,64.544-4.231Zm6.763,8.217H68.718A3.979,3.979,0,0,1,64.65,6.654a4.551,4.551,0,0,1-4.7-4.544H71.519A13.032,13.032,0,0,0,71.6.657,6.637,6.637,0,0,0,64.65-6.265c-4.227,0-7.16,2.88-7.16,7.45,0,4.6,3.038,7.5,7.16,7.5A6.51,6.51,0,0,0,71.307,3.986Z" transform="translate(1321.992 7859.447)" fill="#0a0a0a"/>
    <path id="Path_12768" data-name="Path 12768" d="M0,0S10.254,1.939,15.484,5.3s5.434,8.15,5.434,8.15,4.516.047,6.792,2.988,2.31,8.777,2.31,8.777H0Z" transform="translate(1249.423 7845)" fill="#21b47e"/>
    <path id="Path_12769" data-name="Path 12769" d="M30.02,0S19.765,1.939,14.536,5.3,9.1,13.451,9.1,13.451,4.586,13.5,2.31,16.439,0,25.216,0,25.216H30.02Z" transform="translate(1217 7845)" fill="#21b47e"/>
  </g>
</svg>
